<?xml version="1.0" encoding="utf-8"?>
<!-- Generator: Adobe Illustrator 21.1.0, SVG Export Plug-In . SVG Version: 6.00 Build 0)  -->
<svg version="1.1" xmlns="http://www.w3.org/2000/svg" xmlns:xlink="http://www.w3.org/1999/xlink" x="0px" y="0px"
	 viewBox="0 0 595 118" style="enable-background:new 0 0 595 118;" xml:space="preserve">
<style type="text/css">
	.st0{display:none;}
</style>
<g id="Layer_1">
	<g>
		<path d="M1,117V1h593v116H1z M551.2,114.8h4.6v-4.6h-4.6V114.8z M544,114.8h4.6v-4.6H544V114.8z M551.2,107.6h4.6V103h-4.6V107.6z
			 M544,107.6h4.6V103H544V107.6z M551.2,100.4h4.6v-4.6h-4.6V100.4z M544,100.4h4.6v-4.6H544V100.4z M551.2,93.2h4.6v-4.6h-4.6
			V93.2z M544,93.2h4.6v-4.6H544V93.2z M580,86h4.6v-4.6H580V86z M572.8,86h4.6v-4.6h-4.6V86z M565.6,86h4.6v-4.6h-4.6V86z
			 M558.4,86h4.6v-4.6h-4.6V86z M551.2,86h4.6v-4.6h-4.6V86z M544,86h4.6v-4.6H544V86z M529.6,86h4.6v-4.6h-4.6V86z M522.4,86h4.6
			v-4.6h-4.6V86z M515.2,86h4.6v-4.6h-4.6V86z M508,86h4.6v-4.6H508V86z M500.8,86h4.6v-4.6h-4.6V86z M493.6,86h4.6v-4.6h-4.6V86z
			 M464.8,86h4.6v-4.6h-4.6V86z M457.6,86h4.6v-4.6h-4.6V86z M450.4,86h4.6v-4.6h-4.6V86z M443.2,86h4.6v-4.6h-4.6V86z M407.2,86
			h4.6v-4.6h-4.6V86z M400,86h4.6v-4.6H400V86z M392.8,86h4.6v-4.6h-4.6V86z M385.6,86h4.6v-4.6h-4.6V86z M378.4,86h4.6v-4.6h-4.6
			V86z M371.2,86h4.6v-4.6h-4.6V86z M356.8,86h4.6v-4.6h-4.6V86z M349.6,86h4.6v-4.6h-4.6V86z M320.8,86h4.6v-4.6h-4.6V86z
			 M313.6,86h4.6v-4.6h-4.6V86z M292,86h4.6v-4.6H292V86z M284.8,86h4.6v-4.6h-4.6V86z M277.6,86h4.6v-4.6h-4.6V86z M270.4,86h4.6
			v-4.6h-4.6V86z M234.4,86h4.6v-4.6h-4.6V86z M227.2,86h4.6v-4.6h-4.6V86z M220,86h4.6v-4.6H220V86z M212.8,86h4.6v-4.6h-4.6V86z
			 M205.6,86h4.6v-4.6h-4.6V86z M176.8,86h4.6v-4.6h-4.6V86z M169.6,86h4.6v-4.6h-4.6V86z M162.4,86h4.6v-4.6h-4.6V86z M155.2,86
			h4.6v-4.6h-4.6V86z M148,86h4.6v-4.6H148V86z M126.4,86h4.6v-4.6h-4.6V86z M119.2,86h4.6v-4.6h-4.6V86z M97.6,86h4.6v-4.6h-4.6V86
			z M90.4,86H95v-4.6h-4.6V86z M68.8,86h4.6v-4.6h-4.6V86z M61.6,86h4.6v-4.6h-4.6V86z M40,86h4.6v-4.6H40V86z M32.8,86h4.6v-4.6
			h-4.6V86z M25.6,86h4.6v-4.6h-4.6V86z M18.4,86H23v-4.6h-4.6V86z M11.2,86h4.6v-4.6h-4.6V86z M4,86h4.6v-4.6H4V86z M587.2,78.8
			h4.6v-4.6h-4.6V78.8z M580,78.8h4.6v-4.6H580V78.8z M572.8,78.8h4.6v-4.6h-4.6V78.8z M565.6,78.8h4.6v-4.6h-4.6V78.8z M558.4,78.8
			h4.6v-4.6h-4.6V78.8z M551.2,78.8h4.6v-4.6h-4.6V78.8z M544,78.8h4.6v-4.6H544V78.8z M529.6,78.8h4.6v-4.6h-4.6V78.8z M522.4,78.8
			h4.6v-4.6h-4.6V78.8z M515.2,78.8h4.6v-4.6h-4.6V78.8z M508,78.8h4.6v-4.6H508V78.8z M500.8,78.8h4.6v-4.6h-4.6V78.8z M493.6,78.8
			h4.6v-4.6h-4.6V78.8z M486.4,78.8h4.6v-4.6h-4.6V78.8z M472,78.8h4.6v-4.6H472V78.8z M464.8,78.8h4.6v-4.6h-4.6V78.8z M457.6,78.8
			h4.6v-4.6h-4.6V78.8z M450.4,78.8h4.6v-4.6h-4.6V78.8z M443.2,78.8h4.6v-4.6h-4.6V78.8z M436,78.8h4.6v-4.6H436V78.8z M414.4,78.8
			h4.6v-4.6h-4.6V78.8z M407.2,78.8h4.6v-4.6h-4.6V78.8z M400,78.8h4.6v-4.6H400V78.8z M392.8,78.8h4.6v-4.6h-4.6V78.8z M385.6,78.8
			h4.6v-4.6h-4.6V78.8z M378.4,78.8h4.6v-4.6h-4.6V78.8z M371.2,78.8h4.6v-4.6h-4.6V78.8z M356.8,78.8h4.6v-4.6h-4.6V78.8z
			 M349.6,78.8h4.6v-4.6h-4.6V78.8z M320.8,78.8h4.6v-4.6h-4.6V78.8z M313.6,78.8h4.6v-4.6h-4.6V78.8z M299.2,78.8h4.6v-4.6h-4.6
			V78.8z M292,78.8h4.6v-4.6H292V78.8z M284.8,78.8h4.6v-4.6h-4.6V78.8z M277.6,78.8h4.6v-4.6h-4.6V78.8z M270.4,78.8h4.6v-4.6h-4.6
			V78.8z M263.2,78.8h4.6v-4.6h-4.6V78.8z M241.6,78.8h4.6v-4.6h-4.6V78.8z M234.4,78.8h4.6v-4.6h-4.6V78.8z M227.2,78.8h4.6v-4.6
			h-4.6V78.8z M220,78.8h4.6v-4.6H220V78.8z M212.8,78.8h4.6v-4.6h-4.6V78.8z M205.6,78.8h4.6v-4.6h-4.6V78.8z M198.4,78.8h4.6v-4.6
			h-4.6V78.8z M184,78.8h4.6v-4.6H184V78.8z M176.8,78.8h4.6v-4.6h-4.6V78.8z M169.6,78.8h4.6v-4.6h-4.6V78.8z M162.4,78.8h4.6v-4.6
			h-4.6V78.8z M155.2,78.8h4.6v-4.6h-4.6V78.8z M148,78.8h4.6v-4.6H148V78.8z M140.8,78.8h4.6v-4.6h-4.6V78.8z M126.4,78.8h4.6v-4.6
			h-4.6V78.8z M119.2,78.8h4.6v-4.6h-4.6V78.8z M97.6,78.8h4.6v-4.6h-4.6V78.8z M90.4,78.8H95v-4.6h-4.6V78.8z M68.8,78.8h4.6v-4.6
			h-4.6V78.8z M61.6,78.8h4.6v-4.6h-4.6V78.8z M47.2,78.8h4.6v-4.6h-4.6V78.8z M40,78.8h4.6v-4.6H40V78.8z M32.8,78.8h4.6v-4.6h-4.6
			V78.8z M25.6,78.8h4.6v-4.6h-4.6V78.8z M18.4,78.8H23v-4.6h-4.6V78.8z M11.2,78.8h4.6v-4.6h-4.6V78.8z M4,78.8h4.6v-4.6H4V78.8z
			 M587.2,71.6h4.6V67h-4.6V71.6z M580,71.6h4.6V67H580V71.6z M551.2,71.6h4.6V67h-4.6V71.6z M544,71.6h4.6V67H544V71.6z
			 M493.6,71.6h4.6V67h-4.6V71.6z M486.4,71.6h4.6V67h-4.6V71.6z M472,71.6h4.6V67H472V71.6z M464.8,71.6h4.6V67h-4.6V71.6z
			 M443.2,71.6h4.6V67h-4.6V71.6z M436,71.6h4.6V67H436V71.6z M414.4,71.6h4.6V67h-4.6V71.6z M407.2,71.6h4.6V67h-4.6V71.6z
			 M356.8,71.6h4.6V67h-4.6V71.6z M349.6,71.6h4.6V67h-4.6V71.6z M320.8,71.6h4.6V67h-4.6V71.6z M313.6,71.6h4.6V67h-4.6V71.6z
			 M299.2,71.6h4.6V67h-4.6V71.6z M292,71.6h4.6V67H292V71.6z M270.4,71.6h4.6V67h-4.6V71.6z M263.2,71.6h4.6V67h-4.6V71.6z
			 M241.6,71.6h4.6V67h-4.6V71.6z M234.4,71.6h4.6V67h-4.6V71.6z M205.6,71.6h4.6V67h-4.6V71.6z M198.4,71.6h4.6V67h-4.6V71.6z
			 M184,71.6h4.6V67H184V71.6z M176.8,71.6h4.6V67h-4.6V71.6z M148,71.6h4.6V67H148V71.6z M140.8,71.6h4.6V67h-4.6V71.6z
			 M126.4,71.6h4.6V67h-4.6V71.6z M119.2,71.6h4.6V67h-4.6V71.6z M97.6,71.6h4.6V67h-4.6V71.6z M90.4,71.6H95V67h-4.6V71.6z
			 M68.8,71.6h4.6V67h-4.6V71.6z M61.6,71.6h4.6V67h-4.6V71.6z M47.2,71.6h4.6V67h-4.6V71.6z M40,71.6h4.6V67H40V71.6z M587.2,64.4
			h4.6v-4.6h-4.6V64.4z M580,64.4h4.6v-4.6H580V64.4z M551.2,64.4h4.6v-4.6h-4.6V64.4z M544,64.4h4.6v-4.6H544V64.4z M529.6,64.4
			h4.6v-4.6h-4.6V64.4z M522.4,64.4h4.6v-4.6h-4.6V64.4z M515.2,64.4h4.6v-4.6h-4.6V64.4z M508,64.4h4.6v-4.6H508V64.4z M500.8,64.4
			h4.6v-4.6h-4.6V64.4z M493.6,64.4h4.6v-4.6h-4.6V64.4z M486.4,64.4h4.6v-4.6h-4.6V64.4z M443.2,64.4h4.6v-4.6h-4.6V64.4z
			 M436,64.4h4.6v-4.6H436V64.4z M414.4,64.4h4.6v-4.6h-4.6V64.4z M407.2,64.4h4.6v-4.6h-4.6V64.4z M400,64.4h4.6v-4.6H400V64.4z
			 M392.8,64.4h4.6v-4.6h-4.6V64.4z M385.6,64.4h4.6v-4.6h-4.6V64.4z M378.4,64.4h4.6v-4.6h-4.6V64.4z M356.8,64.4h4.6v-4.6h-4.6
			V64.4z M349.6,64.4h4.6v-4.6h-4.6V64.4z M320.8,64.4h4.6v-4.6h-4.6V64.4z M313.6,64.4h4.6v-4.6h-4.6V64.4z M270.4,64.4h4.6v-4.6
			h-4.6V64.4z M263.2,64.4h4.6v-4.6h-4.6V64.4z M241.6,64.4h4.6v-4.6h-4.6V64.4z M234.4,64.4h4.6v-4.6h-4.6V64.4z M205.6,64.4h4.6
			v-4.6h-4.6V64.4z M198.4,64.4h4.6v-4.6h-4.6V64.4z M184,64.4h4.6v-4.6H184V64.4z M176.8,64.4h4.6v-4.6h-4.6V64.4z M148,64.4h4.6
			v-4.6H148V64.4z M140.8,64.4h4.6v-4.6h-4.6V64.4z M126.4,64.4h4.6v-4.6h-4.6V64.4z M119.2,64.4h4.6v-4.6h-4.6V64.4z M97.6,64.4
			h4.6v-4.6h-4.6V64.4z M90.4,64.4H95v-4.6h-4.6V64.4z M68.8,64.4h4.6v-4.6h-4.6V64.4z M61.6,64.4h4.6v-4.6h-4.6V64.4z M47.2,64.4
			h4.6v-4.6h-4.6V64.4z M40,64.4h4.6v-4.6H40V64.4z M32.8,64.4h4.6v-4.6h-4.6V64.4z M25.6,64.4h4.6v-4.6h-4.6V64.4z M18.4,64.4H23
			v-4.6h-4.6V64.4z M11.2,64.4h4.6v-4.6h-4.6V64.4z M587.2,57.2h4.6v-4.6h-4.6V57.2z M580,57.2h4.6v-4.6H580V57.2z M551.2,57.2h4.6
			v-4.6h-4.6V57.2z M544,57.2h4.6v-4.6H544V57.2z M529.6,57.2h4.6v-4.6h-4.6V57.2z M522.4,57.2h4.6v-4.6h-4.6V57.2z M515.2,57.2h4.6
			v-4.6h-4.6V57.2z M508,57.2h4.6v-4.6H508V57.2z M500.8,57.2h4.6v-4.6h-4.6V57.2z M493.6,57.2h4.6v-4.6h-4.6V57.2z M486.4,57.2h4.6
			v-4.6h-4.6V57.2z M443.2,57.2h4.6v-4.6h-4.6V57.2z M436,57.2h4.6v-4.6H436V57.2z M407.2,57.2h4.6v-4.6h-4.6V57.2z M400,57.2h4.6
			v-4.6H400V57.2z M392.8,57.2h4.6v-4.6h-4.6V57.2z M385.6,57.2h4.6v-4.6h-4.6V57.2z M378.4,57.2h4.6v-4.6h-4.6V57.2z M371.2,57.2
			h4.6v-4.6h-4.6V57.2z M356.8,57.2h4.6v-4.6h-4.6V57.2z M349.6,57.2h4.6v-4.6h-4.6V57.2z M320.8,57.2h4.6v-4.6h-4.6V57.2z
			 M313.6,57.2h4.6v-4.6h-4.6V57.2z M270.4,57.2h4.6v-4.6h-4.6V57.2z M263.2,57.2h4.6v-4.6h-4.6V57.2z M241.6,57.2h4.6v-4.6h-4.6
			V57.2z M234.4,57.2h4.6v-4.6h-4.6V57.2z M205.6,57.2h4.6v-4.6h-4.6V57.2z M198.4,57.2h4.6v-4.6h-4.6V57.2z M184,57.2h4.6v-4.6H184
			V57.2z M176.8,57.2h4.6v-4.6h-4.6V57.2z M148,57.2h4.6v-4.6H148V57.2z M140.8,57.2h4.6v-4.6h-4.6V57.2z M126.4,57.2h4.6v-4.6h-4.6
			V57.2z M119.2,57.2h4.6v-4.6h-4.6V57.2z M97.6,57.2h4.6v-4.6h-4.6V57.2z M90.4,57.2H95v-4.6h-4.6V57.2z M68.8,57.2h4.6v-4.6h-4.6
			V57.2z M61.6,57.2h4.6v-4.6h-4.6V57.2z M40,57.2h4.6v-4.6H40V57.2z M32.8,57.2h4.6v-4.6h-4.6V57.2z M25.6,57.2h4.6v-4.6h-4.6V57.2
			z M18.4,57.2H23v-4.6h-4.6V57.2z M11.2,57.2h4.6v-4.6h-4.6V57.2z M4,57.2h4.6v-4.6H4V57.2z M587.2,50h4.6v-4.6h-4.6V50z M580,50
			h4.6v-4.6H580V50z M551.2,50h4.6v-4.6h-4.6V50z M544,50h4.6v-4.6H544V50z M529.6,50h4.6v-4.6h-4.6V50z M522.4,50h4.6v-4.6h-4.6V50
			z M493.6,50h4.6v-4.6h-4.6V50z M486.4,50h4.6v-4.6h-4.6V50z M443.2,50h4.6v-4.6h-4.6V50z M436,50h4.6v-4.6H436V50z M378.4,50h4.6
			v-4.6h-4.6V50z M371.2,50h4.6v-4.6h-4.6V50z M356.8,50h4.6v-4.6h-4.6V50z M349.6,50h4.6v-4.6h-4.6V50z M320.8,50h4.6v-4.6h-4.6V50
			z M313.6,50h4.6v-4.6h-4.6V50z M270.4,50h4.6v-4.6h-4.6V50z M263.2,50h4.6v-4.6h-4.6V50z M241.6,50h4.6v-4.6h-4.6V50z M234.4,50
			h4.6v-4.6h-4.6V50z M205.6,50h4.6v-4.6h-4.6V50z M198.4,50h4.6v-4.6h-4.6V50z M184,50h4.6v-4.6H184V50z M176.8,50h4.6v-4.6h-4.6
			V50z M148,50h4.6v-4.6H148V50z M140.8,50h4.6v-4.6h-4.6V50z M126.4,50h4.6v-4.6h-4.6V50z M119.2,50h4.6v-4.6h-4.6V50z M97.6,50
			h4.6v-4.6h-4.6V50z M90.4,50H95v-4.6h-4.6V50z M68.8,50h4.6v-4.6h-4.6V50z M61.6,50h4.6v-4.6h-4.6V50z M11.2,50h4.6v-4.6h-4.6V50z
			 M4,50h4.6v-4.6H4V50z M587.2,42.8h4.6v-4.6h-4.6V42.8z M580,42.8h4.6v-4.6H580V42.8z M572.8,42.8h4.6v-4.6h-4.6V42.8z
			 M565.6,42.8h4.6v-4.6h-4.6V42.8z M558.4,42.8h4.6v-4.6h-4.6V42.8z M551.2,42.8h4.6v-4.6h-4.6V42.8z M544,42.8h4.6v-4.6H544V42.8z
			 M529.6,42.8h4.6v-4.6h-4.6V42.8z M522.4,42.8h4.6v-4.6h-4.6V42.8z M515.2,42.8h4.6v-4.6h-4.6V42.8z M508,42.8h4.6v-4.6H508V42.8z
			 M500.8,42.8h4.6v-4.6h-4.6V42.8z M493.6,42.8h4.6v-4.6h-4.6V42.8z M486.4,42.8h4.6v-4.6h-4.6V42.8z M457.6,42.8h4.6v-4.6h-4.6
			V42.8z M450.4,42.8h4.6v-4.6h-4.6V42.8z M443.2,42.8h4.6v-4.6h-4.6V42.8z M436,42.8h4.6v-4.6H436V42.8z M428.8,42.8h4.6v-4.6h-4.6
			V42.8z M414.4,42.8h4.6v-4.6h-4.6V42.8z M407.2,42.8h4.6v-4.6h-4.6V42.8z M400,42.8h4.6v-4.6H400V42.8z M392.8,42.8h4.6v-4.6h-4.6
			V42.8z M385.6,42.8h4.6v-4.6h-4.6V42.8z M378.4,42.8h4.6v-4.6h-4.6V42.8z M371.2,42.8h4.6v-4.6h-4.6V42.8z M356.8,42.8h4.6v-4.6
			h-4.6V42.8z M349.6,42.8h4.6v-4.6h-4.6V42.8z M342.4,42.8h4.6v-4.6h-4.6V42.8z M335.2,42.8h4.6v-4.6h-4.6V42.8z M328,42.8h4.6
			v-4.6H328V42.8z M320.8,42.8h4.6v-4.6h-4.6V42.8z M313.6,42.8h4.6v-4.6h-4.6V42.8z M284.8,42.8h4.6v-4.6h-4.6V42.8z M277.6,42.8
			h4.6v-4.6h-4.6V42.8z M270.4,42.8h4.6v-4.6h-4.6V42.8z M263.2,42.8h4.6v-4.6h-4.6V42.8z M256,42.8h4.6v-4.6H256V42.8z M241.6,42.8
			h4.6v-4.6h-4.6V42.8z M234.4,42.8h4.6v-4.6h-4.6V42.8z M227.2,42.8h4.6v-4.6h-4.6V42.8z M220,42.8h4.6v-4.6H220V42.8z M212.8,42.8
			h4.6v-4.6h-4.6V42.8z M205.6,42.8h4.6v-4.6h-4.6V42.8z M198.4,42.8h4.6v-4.6h-4.6V42.8z M184,42.8h4.6v-4.6H184V42.8z M176.8,42.8
			h4.6v-4.6h-4.6V42.8z M169.6,42.8h4.6v-4.6h-4.6V42.8z M162.4,42.8h4.6v-4.6h-4.6V42.8z M155.2,42.8h4.6v-4.6h-4.6V42.8z
			 M148,42.8h4.6v-4.6H148V42.8z M140.8,42.8h4.6v-4.6h-4.6V42.8z M126.4,42.8h4.6v-4.6h-4.6V42.8z M119.2,42.8h4.6v-4.6h-4.6V42.8z
			 M112,42.8h4.6v-4.6H112V42.8z M104.8,42.8h4.6v-4.6h-4.6V42.8z M97.6,42.8h4.6v-4.6h-4.6V42.8z M90.4,42.8H95v-4.6h-4.6V42.8z
			 M83.2,42.8h4.6v-4.6h-4.6V42.8z M76,42.8h4.6v-4.6H76V42.8z M68.8,42.8h4.6v-4.6h-4.6V42.8z M61.6,42.8h4.6v-4.6h-4.6V42.8z
			 M47.2,42.8h4.6v-4.6h-4.6V42.8z M40,42.8h4.6v-4.6H40V42.8z M32.8,42.8h4.6v-4.6h-4.6V42.8z M25.6,42.8h4.6v-4.6h-4.6V42.8z
			 M18.4,42.8H23v-4.6h-4.6V42.8z M11.2,42.8h4.6v-4.6h-4.6V42.8z M4,42.8h4.6v-4.6H4V42.8z M580,35.6h4.6V31H580V35.6z M572.8,35.6
			h4.6V31h-4.6V35.6z M565.6,35.6h4.6V31h-4.6V35.6z M558.4,35.6h4.6V31h-4.6V35.6z M551.2,35.6h4.6V31h-4.6V35.6z M544,35.6h4.6V31
			H544V35.6z M522.4,35.6h4.6V31h-4.6V35.6z M515.2,35.6h4.6V31h-4.6V35.6z M508,35.6h4.6V31H508V35.6z M500.8,35.6h4.6V31h-4.6
			V35.6z M493.6,35.6h4.6V31h-4.6V35.6z M457.6,35.6h4.6V31h-4.6V35.6z M450.4,35.6h4.6V31h-4.6V35.6z M443.2,35.6h4.6V31h-4.6V35.6
			z M436,35.6h4.6V31H436V35.6z M428.8,35.6h4.6V31h-4.6V35.6z M414.4,35.6h4.6V31h-4.6V35.6z M407.2,35.6h4.6V31h-4.6V35.6z
			 M400,35.6h4.6V31H400V35.6z M392.8,35.6h4.6V31h-4.6V35.6z M385.6,35.6h4.6V31h-4.6V35.6z M378.4,35.6h4.6V31h-4.6V35.6z
			 M349.6,35.6h4.6V31h-4.6V35.6z M342.4,35.6h4.6V31h-4.6V35.6z M335.2,35.6h4.6V31h-4.6V35.6z M328,35.6h4.6V31H328V35.6z
			 M320.8,35.6h4.6V31h-4.6V35.6z M313.6,35.6h4.6V31h-4.6V35.6z M284.8,35.6h4.6V31h-4.6V35.6z M277.6,35.6h4.6V31h-4.6V35.6z
			 M270.4,35.6h4.6V31h-4.6V35.6z M263.2,35.6h4.6V31h-4.6V35.6z M256,35.6h4.6V31H256V35.6z M234.4,35.6h4.6V31h-4.6V35.6z
			 M227.2,35.6h4.6V31h-4.6V35.6z M220,35.6h4.6V31H220V35.6z M212.8,35.6h4.6V31h-4.6V35.6z M205.6,35.6h4.6V31h-4.6V35.6z
			 M176.8,35.6h4.6V31h-4.6V35.6z M169.6,35.6h4.6V31h-4.6V35.6z M162.4,35.6h4.6V31h-4.6V35.6z M155.2,35.6h4.6V31h-4.6V35.6z
			 M148,35.6h4.6V31H148V35.6z M119.2,35.6h4.6V31h-4.6V35.6z M112,35.6h4.6V31H112V35.6z M104.8,35.6h4.6V31h-4.6V35.6z M90.4,35.6
			H95V31h-4.6V35.6z M83.2,35.6h4.6V31h-4.6V35.6z M76,35.6h4.6V31H76V35.6z M68.8,35.6h4.6V31h-4.6V35.6z M61.6,35.6h4.6V31h-4.6
			V35.6z M47.2,35.6h4.6V31h-4.6V35.6z M40,35.6h4.6V31H40V35.6z M32.8,35.6h4.6V31h-4.6V35.6z M25.6,35.6h4.6V31h-4.6V35.6z
			 M18.4,35.6H23V31h-4.6V35.6z M11.2,35.6h4.6V31h-4.6V35.6z M443.2,28.4h4.6v-4.6h-4.6V28.4z M436,28.4h4.6v-4.6H436V28.4z
			 M320.8,28.4h4.6v-4.6h-4.6V28.4z M313.6,28.4h4.6v-4.6h-4.6V28.4z M270.4,28.4h4.6v-4.6h-4.6V28.4z M263.2,28.4h4.6v-4.6h-4.6
			V28.4z M443.2,21.2h4.6v-4.6h-4.6V21.2z M436,21.2h4.6v-4.6H436V21.2z M320.8,21.2h4.6v-4.6h-4.6V21.2z M313.6,21.2h4.6v-4.6h-4.6
			V21.2z M270.4,21.2h4.6v-4.6h-4.6V21.2z M263.2,21.2h4.6v-4.6h-4.6V21.2z M443.2,14h4.6V9.4h-4.6V14z M436,14h4.6V9.4H436V14z
			 M320.8,14h4.6V9.4h-4.6V14z M313.6,14h4.6V9.4h-4.6V14z M270.4,14h4.6V9.4h-4.6V14z M263.2,14h4.6V9.4h-4.6V14z M443.2,6.8h4.6
			V2.2h-4.6V6.8z M436,6.8h4.6V2.2H436V6.8z M320.8,6.8h4.6V2.2h-4.6V6.8z M313.6,6.8h4.6V2.2h-4.6V6.8z M270.4,6.8h4.6V2.2h-4.6
			V6.8z M263.2,6.8h4.6V2.2h-4.6V6.8z"/>
		<path d="M593.5,1.5v115H1.5V1.5H593.5 M442.7,7.3h1h3.6h1v-1V2.7v-1h-1h-3.6h-1v1v3.6V7.3 M435.5,7.3h1h3.6h1v-1V2.7v-1h-1h-3.6
			h-1v1v3.6V7.3 M320.3,7.3h1h3.6h1v-1V2.7v-1h-1h-3.6h-1v1v3.6V7.3 M313.1,7.3h1h3.6h1v-1V2.7v-1h-1h-3.6h-1v1v3.6V7.3 M269.9,7.3
			h1h3.6h1v-1V2.7v-1h-1h-3.6h-1v1v3.6V7.3 M262.7,7.3h1h3.6h1v-1V2.7v-1h-1h-3.6h-1v1v3.6V7.3 M442.7,14.5h1h3.6h1v-1V9.9v-1h-1
			h-3.6h-1v1v3.6V14.5 M435.5,14.5h1h3.6h1v-1V9.9v-1h-1h-3.6h-1v1v3.6V14.5 M320.3,14.5h1h3.6h1v-1V9.9v-1h-1h-3.6h-1v1v3.6V14.5
			 M313.1,14.5h1h3.6h1v-1V9.9v-1h-1h-3.6h-1v1v3.6V14.5 M269.9,14.5h1h3.6h1v-1V9.9v-1h-1h-3.6h-1v1v3.6V14.5 M262.7,14.5h1h3.6h1
			v-1V9.9v-1h-1h-3.6h-1v1v3.6V14.5 M442.7,21.7h1h3.6h1v-1v-3.6v-1h-1h-3.6h-1v1v3.6V21.7 M435.5,21.7h1h3.6h1v-1v-3.6v-1h-1h-3.6
			h-1v1v3.6V21.7 M320.3,21.7h1h3.6h1v-1v-3.6v-1h-1h-3.6h-1v1v3.6V21.7 M313.1,21.7h1h3.6h1v-1v-3.6v-1h-1h-3.6h-1v1v3.6V21.7
			 M269.9,21.7h1h3.6h1v-1v-3.6v-1h-1h-3.6h-1v1v3.6V21.7 M262.7,21.7h1h3.6h1v-1v-3.6v-1h-1h-3.6h-1v1v3.6V21.7 M442.7,28.9h1h3.6
			h1v-1v-3.6v-1h-1h-3.6h-1v1v3.6V28.9 M435.5,28.9h1h3.6h1v-1v-3.6v-1h-1h-3.6h-1v1v3.6V28.9 M320.3,28.9h1h3.6h1v-1v-3.6v-1h-1
			h-3.6h-1v1v3.6V28.9 M313.1,28.9h1h3.6h1v-1v-3.6v-1h-1h-3.6h-1v1v3.6V28.9 M269.9,28.9h1h3.6h1v-1v-3.6v-1h-1h-3.6h-1v1v3.6V28.9
			 M262.7,28.9h1h3.6h1v-1v-3.6v-1h-1h-3.6h-1v1v3.6V28.9 M579.5,36.1h1h3.6h1v-1v-3.6v-1h-1h-3.6h-1v1v3.6V36.1 M572.3,36.1h1h3.6
			h1v-1v-3.6v-1h-1h-3.6h-1v1v3.6V36.1 M565.1,36.1h1h3.6h1v-1v-3.6v-1h-1h-3.6h-1v1v3.6V36.1 M557.9,36.1h1h3.6h1v-1v-3.6v-1h-1
			h-3.6h-1v1v3.6V36.1 M550.7,36.1h1h3.6h1v-1v-3.6v-1h-1h-3.6h-1v1v3.6V36.1 M543.5,36.1h1h3.6h1v-1v-3.6v-1h-1h-3.6h-1v1v3.6V36.1
			 M521.9,36.1h1h3.6h1v-1v-3.6v-1h-1h-3.6h-1v1v3.6V36.1 M514.7,36.1h1h3.6h1v-1v-3.6v-1h-1h-3.6h-1v1v3.6V36.1 M507.5,36.1h1h3.6
			h1v-1v-3.6v-1h-1h-3.6h-1v1v3.6V36.1 M500.3,36.1h1h3.6h1v-1v-3.6v-1h-1h-3.6h-1v1v3.6V36.1 M493.1,36.1h1h3.6h1v-1v-3.6v-1h-1
			h-3.6h-1v1v3.6V36.1 M457.1,36.1h1h3.6h1v-1v-3.6v-1h-1h-3.6h-1v1v3.6V36.1 M449.9,36.1h1h3.6h1v-1v-3.6v-1h-1h-3.6h-1v1v3.6V36.1
			 M442.7,36.1h1h3.6h1v-1v-3.6v-1h-1h-3.6h-1v1v3.6V36.1 M435.5,36.1h1h3.6h1v-1v-3.6v-1h-1h-3.6h-1v1v3.6V36.1 M428.3,36.1h1h3.6
			h1v-1v-3.6v-1h-1h-3.6h-1v1v3.6V36.1 M413.9,36.1h1h3.6h1v-1v-3.6v-1h-1h-3.6h-1v1v3.6V36.1 M406.7,36.1h1h3.6h1v-1v-3.6v-1h-1
			h-3.6h-1v1v3.6V36.1 M399.5,36.1h1h3.6h1v-1v-3.6v-1h-1h-3.6h-1v1v3.6V36.1 M392.3,36.1h1h3.6h1v-1v-3.6v-1h-1h-3.6h-1v1v3.6V36.1
			 M385.1,36.1h1h3.6h1v-1v-3.6v-1h-1h-3.6h-1v1v3.6V36.1 M377.9,36.1h1h3.6h1v-1v-3.6v-1h-1h-3.6h-1v1v3.6V36.1 M349.1,36.1h1h3.6
			h1v-1v-3.6v-1h-1h-3.6h-1v1v3.6V36.1 M341.9,36.1h1h3.6h1v-1v-3.6v-1h-1h-3.6h-1v1v3.6V36.1 M334.7,36.1h1h3.6h1v-1v-3.6v-1h-1
			h-3.6h-1v1v3.6V36.1 M327.5,36.1h1h3.6h1v-1v-3.6v-1h-1h-3.6h-1v1v3.6V36.1 M320.3,36.1h1h3.6h1v-1v-3.6v-1h-1h-3.6h-1v1v3.6V36.1
			 M313.1,36.1h1h3.6h1v-1v-3.6v-1h-1h-3.6h-1v1v3.6V36.1 M284.3,36.1h1h3.6h1v-1v-3.6v-1h-1h-3.6h-1v1v3.6V36.1 M277.1,36.1h1h3.6
			h1v-1v-3.6v-1h-1h-3.6h-1v1v3.6V36.1 M269.9,36.1h1h3.6h1v-1v-3.6v-1h-1h-3.6h-1v1v3.6V36.1 M262.7,36.1h1h3.6h1v-1v-3.6v-1h-1
			h-3.6h-1v1v3.6V36.1 M255.5,36.1h1h3.6h1v-1v-3.6v-1h-1h-3.6h-1v1v3.6V36.1 M233.9,36.1h1h3.6h1v-1v-3.6v-1h-1h-3.6h-1v1v3.6V36.1
			 M226.7,36.1h1h3.6h1v-1v-3.6v-1h-1h-3.6h-1v1v3.6V36.1 M219.5,36.1h1h3.6h1v-1v-3.6v-1h-1h-3.6h-1v1v3.6V36.1 M212.3,36.1h1h3.6
			h1v-1v-3.6v-1h-1h-3.6h-1v1v3.6V36.1 M205.1,36.1h1h3.6h1v-1v-3.6v-1h-1h-3.6h-1v1v3.6V36.1 M176.3,36.1h1h3.6h1v-1v-3.6v-1h-1
			h-3.6h-1v1v3.6V36.1 M169.1,36.1h1h3.6h1v-1v-3.6v-1h-1h-3.6h-1v1v3.6V36.1 M161.9,36.1h1h3.6h1v-1v-3.6v-1h-1h-3.6h-1v1v3.6V36.1
			 M154.7,36.1h1h3.6h1v-1v-3.6v-1h-1h-3.6h-1v1v3.6V36.1 M147.5,36.1h1h3.6h1v-1v-3.6v-1h-1h-3.6h-1v1v3.6V36.1 M118.7,36.1h1h3.6
			h1v-1v-3.6v-1h-1h-3.6h-1v1v3.6V36.1 M111.5,36.1h1h3.6h1v-1v-3.6v-1h-1h-3.6h-1v1v3.6V36.1 M104.3,36.1h1h3.6h1v-1v-3.6v-1h-1
			h-3.6h-1v1v3.6V36.1 M89.9,36.1h1h3.6h1v-1v-3.6v-1h-1h-3.6h-1v1v3.6V36.1 M82.7,36.1h1h3.6h1v-1v-3.6v-1h-1h-3.6h-1v1v3.6V36.1
			 M75.5,36.1h1h3.6h1v-1v-3.6v-1h-1h-3.6h-1v1v3.6V36.1 M68.3,36.1h1h3.6h1v-1v-3.6v-1h-1h-3.6h-1v1v3.6V36.1 M61.1,36.1h1h3.6h1
			v-1v-3.6v-1h-1h-3.6h-1v1v3.6V36.1 M46.7,36.1h1h3.6h1v-1v-3.6v-1h-1h-3.6h-1v1v3.6V36.1 M39.5,36.1h1h3.6h1v-1v-3.6v-1h-1h-3.6
			h-1v1v3.6V36.1 M32.3,36.1h1h3.6h1v-1v-3.6v-1h-1h-3.6h-1v1v3.6V36.1 M25.1,36.1h1h3.6h1v-1v-3.6v-1h-1h-3.6h-1v1v3.6V36.1
			 M17.9,36.1h1h3.6h1v-1v-3.6v-1h-1h-3.6h-1v1v3.6V36.1 M10.7,36.1h1h3.6h1v-1v-3.6v-1h-1h-3.6h-1v1v3.6V36.1 M586.7,43.3h1h3.6h1
			v-1v-3.6v-1h-1h-3.6h-1v1v3.6V43.3 M579.5,43.3h1h3.6h1v-1v-3.6v-1h-1h-3.6h-1v1v3.6V43.3 M572.3,43.3h1h3.6h1v-1v-3.6v-1h-1h-3.6
			h-1v1v3.6V43.3 M565.1,43.3h1h3.6h1v-1v-3.6v-1h-1h-3.6h-1v1v3.6V43.3 M557.9,43.3h1h3.6h1v-1v-3.6v-1h-1h-3.6h-1v1v3.6V43.3
			 M550.7,43.3h1h3.6h1v-1v-3.6v-1h-1h-3.6h-1v1v3.6V43.3 M543.5,43.3h1h3.6h1v-1v-3.6v-1h-1h-3.6h-1v1v3.6V43.3 M529.1,43.3h1h3.6
			h1v-1v-3.6v-1h-1h-3.6h-1v1v3.6V43.3 M521.9,43.3h1h3.6h1v-1v-3.6v-1h-1h-3.6h-1v1v3.6V43.3 M514.7,43.3h1h3.6h1v-1v-3.6v-1h-1
			h-3.6h-1v1v3.6V43.3 M507.5,43.3h1h3.6h1v-1v-3.6v-1h-1h-3.6h-1v1v3.6V43.3 M500.3,43.3h1h3.6h1v-1v-3.6v-1h-1h-3.6h-1v1v3.6V43.3
			 M493.1,43.3h1h3.6h1v-1v-3.6v-1h-1h-3.6h-1v1v3.6V43.3 M485.9,43.3h1h3.6h1v-1v-3.6v-1h-1h-3.6h-1v1v3.6V43.3 M457.1,43.3h1h3.6
			h1v-1v-3.6v-1h-1h-3.6h-1v1v3.6V43.3 M449.9,43.3h1h3.6h1v-1v-3.6v-1h-1h-3.6h-1v1v3.6V43.3 M442.7,43.3h1h3.6h1v-1v-3.6v-1h-1
			h-3.6h-1v1v3.6V43.3 M435.5,43.3h1h3.6h1v-1v-3.6v-1h-1h-3.6h-1v1v3.6V43.3 M428.3,43.3h1h3.6h1v-1v-3.6v-1h-1h-3.6h-1v1v3.6V43.3
			 M413.9,43.3h1h3.6h1v-1v-3.6v-1h-1h-3.6h-1v1v3.6V43.3 M406.7,43.3h1h3.6h1v-1v-3.6v-1h-1h-3.6h-1v1v3.6V43.3 M399.5,43.3h1h3.6
			h1v-1v-3.6v-1h-1h-3.6h-1v1v3.6V43.3 M392.3,43.3h1h3.6h1v-1v-3.6v-1h-1h-3.6h-1v1v3.6V43.3 M385.1,43.3h1h3.6h1v-1v-3.6v-1h-1
			h-3.6h-1v1v3.6V43.3 M377.9,43.3h1h3.6h1v-1v-3.6v-1h-1h-3.6h-1v1v3.6V43.3 M370.7,43.3h1h3.6h1v-1v-3.6v-1h-1h-3.6h-1v1v3.6V43.3
			 M356.3,43.3h1h3.6h1v-1v-3.6v-1h-1h-3.6h-1v1v3.6V43.3 M349.1,43.3h1h3.6h1v-1v-3.6v-1h-1h-3.6h-1v1v3.6V43.3 M341.9,43.3h1h3.6
			h1v-1v-3.6v-1h-1h-3.6h-1v1v3.6V43.3 M334.7,43.3h1h3.6h1v-1v-3.6v-1h-1h-3.6h-1v1v3.6V43.3 M327.5,43.3h1h3.6h1v-1v-3.6v-1h-1
			h-3.6h-1v1v3.6V43.3 M320.3,43.3h1h3.6h1v-1v-3.6v-1h-1h-3.6h-1v1v3.6V43.3 M313.1,43.3h1h3.6h1v-1v-3.6v-1h-1h-3.6h-1v1v3.6V43.3
			 M284.3,43.3h1h3.6h1v-1v-3.6v-1h-1h-3.6h-1v1v3.6V43.3 M277.1,43.3h1h3.6h1v-1v-3.6v-1h-1h-3.6h-1v1v3.6V43.3 M269.9,43.3h1h3.6
			h1v-1v-3.6v-1h-1h-3.6h-1v1v3.6V43.3 M262.7,43.3h1h3.6h1v-1v-3.6v-1h-1h-3.6h-1v1v3.6V43.3 M255.5,43.3h1h3.6h1v-1v-3.6v-1h-1
			h-3.6h-1v1v3.6V43.3 M241.1,43.3h1h3.6h1v-1v-3.6v-1h-1h-3.6h-1v1v3.6V43.3 M233.9,43.3h1h3.6h1v-1v-3.6v-1h-1h-3.6h-1v1v3.6V43.3
			 M226.7,43.3h1h3.6h1v-1v-3.6v-1h-1h-3.6h-1v1v3.6V43.3 M219.5,43.3h1h3.6h1v-1v-3.6v-1h-1h-3.6h-1v1v3.6V43.3 M212.3,43.3h1h3.6
			h1v-1v-3.6v-1h-1h-3.6h-1v1v3.6V43.3 M205.1,43.3h1h3.6h1v-1v-3.6v-1h-1h-3.6h-1v1v3.6V43.3 M197.9,43.3h1h3.6h1v-1v-3.6v-1h-1
			h-3.6h-1v1v3.6V43.3 M183.5,43.3h1h3.6h1v-1v-3.6v-1h-1h-3.6h-1v1v3.6V43.3 M176.3,43.3h1h3.6h1v-1v-3.6v-1h-1h-3.6h-1v1v3.6V43.3
			 M169.1,43.3h1h3.6h1v-1v-3.6v-1h-1h-3.6h-1v1v3.6V43.3 M161.9,43.3h1h3.6h1v-1v-3.6v-1h-1h-3.6h-1v1v3.6V43.3 M154.7,43.3h1h3.6
			h1v-1v-3.6v-1h-1h-3.6h-1v1v3.6V43.3 M147.5,43.3h1h3.6h1v-1v-3.6v-1h-1h-3.6h-1v1v3.6V43.3 M140.3,43.3h1h3.6h1v-1v-3.6v-1h-1
			h-3.6h-1v1v3.6V43.3 M125.9,43.3h1h3.6h1v-1v-3.6v-1h-1h-3.6h-1v1v3.6V43.3 M118.7,43.3h1h3.6h1v-1v-3.6v-1h-1h-3.6h-1v1v3.6V43.3
			 M111.5,43.3h1h3.6h1v-1v-3.6v-1h-1h-3.6h-1v1v3.6V43.3 M104.3,43.3h1h3.6h1v-1v-3.6v-1h-1h-3.6h-1v1v3.6V43.3 M97.1,43.3h1h3.6h1
			v-1v-3.6v-1h-1h-3.6h-1v1v3.6V43.3 M89.9,43.3h1h3.6h1v-1v-3.6v-1h-1h-3.6h-1v1v3.6V43.3 M82.7,43.3h1h3.6h1v-1v-3.6v-1h-1h-3.6
			h-1v1v3.6V43.3 M75.5,43.3h1h3.6h1v-1v-3.6v-1h-1h-3.6h-1v1v3.6V43.3 M68.3,43.3h1h3.6h1v-1v-3.6v-1h-1h-3.6h-1v1v3.6V43.3
			 M61.1,43.3h1h3.6h1v-1v-3.6v-1h-1h-3.6h-1v1v3.6V43.3 M46.7,43.3h1h3.6h1v-1v-3.6v-1h-1h-3.6h-1v1v3.6V43.3 M39.5,43.3h1h3.6h1
			v-1v-3.6v-1h-1h-3.6h-1v1v3.6V43.3 M32.3,43.3h1h3.6h1v-1v-3.6v-1h-1h-3.6h-1v1v3.6V43.3 M25.1,43.3h1h3.6h1v-1v-3.6v-1h-1h-3.6
			h-1v1v3.6V43.3 M17.9,43.3h1h3.6h1v-1v-3.6v-1h-1h-3.6h-1v1v3.6V43.3 M10.7,43.3h1h3.6h1v-1v-3.6v-1h-1h-3.6h-1v1v3.6V43.3
			 M3.5,43.3h1h3.6h1v-1v-3.6v-1h-1H4.5h-1v1v3.6V43.3 M586.7,50.5h1h3.6h1v-1v-3.6v-1h-1h-3.6h-1v1v3.6V50.5 M579.5,50.5h1h3.6h1
			v-1v-3.6v-1h-1h-3.6h-1v1v3.6V50.5 M550.7,50.5h1h3.6h1v-1v-3.6v-1h-1h-3.6h-1v1v3.6V50.5 M543.5,50.5h1h3.6h1v-1v-3.6v-1h-1h-3.6
			h-1v1v3.6V50.5 M529.1,50.5h1h3.6h1v-1v-3.6v-1h-1h-3.6h-1v1v3.6V50.5 M521.9,50.5h1h3.6h1v-1v-3.6v-1h-1h-3.6h-1v1v3.6V50.5
			 M493.1,50.5h1h3.6h1v-1v-3.6v-1h-1h-3.6h-1v1v3.6V50.5 M485.9,50.5h1h3.6h1v-1v-3.6v-1h-1h-3.6h-1v1v3.6V50.5 M442.7,50.5h1h3.6
			h1v-1v-3.6v-1h-1h-3.6h-1v1v3.6V50.5 M435.5,50.5h1h3.6h1v-1v-3.6v-1h-1h-3.6h-1v1v3.6V50.5 M377.9,50.5h1h3.6h1v-1v-3.6v-1h-1
			h-3.6h-1v1v3.6V50.5 M370.7,50.5h1h3.6h1v-1v-3.6v-1h-1h-3.6h-1v1v3.6V50.5 M356.3,50.5h1h3.6h1v-1v-3.6v-1h-1h-3.6h-1v1v3.6V50.5
			 M349.1,50.5h1h3.6h1v-1v-3.6v-1h-1h-3.6h-1v1v3.6V50.5 M320.3,50.5h1h3.6h1v-1v-3.6v-1h-1h-3.6h-1v1v3.6V50.5 M313.1,50.5h1h3.6
			h1v-1v-3.6v-1h-1h-3.6h-1v1v3.6V50.5 M269.9,50.5h1h3.6h1v-1v-3.6v-1h-1h-3.6h-1v1v3.6V50.5 M262.7,50.5h1h3.6h1v-1v-3.6v-1h-1
			h-3.6h-1v1v3.6V50.5 M241.1,50.5h1h3.6h1v-1v-3.6v-1h-1h-3.6h-1v1v3.6V50.5 M233.9,50.5h1h3.6h1v-1v-3.6v-1h-1h-3.6h-1v1v3.6V50.5
			 M205.1,50.5h1h3.6h1v-1v-3.6v-1h-1h-3.6h-1v1v3.6V50.5 M197.9,50.5h1h3.6h1v-1v-3.6v-1h-1h-3.6h-1v1v3.6V50.5 M183.5,50.5h1h3.6
			h1v-1v-3.6v-1h-1h-3.6h-1v1v3.6V50.5 M176.3,50.5h1h3.6h1v-1v-3.6v-1h-1h-3.6h-1v1v3.6V50.5 M147.5,50.5h1h3.6h1v-1v-3.6v-1h-1
			h-3.6h-1v1v3.6V50.5 M140.3,50.5h1h3.6h1v-1v-3.6v-1h-1h-3.6h-1v1v3.6V50.5 M125.9,50.5h1h3.6h1v-1v-3.6v-1h-1h-3.6h-1v1v3.6V50.5
			 M118.7,50.5h1h3.6h1v-1v-3.6v-1h-1h-3.6h-1v1v3.6V50.5 M97.1,50.5h1h3.6h1v-1v-3.6v-1h-1h-3.6h-1v1v3.6V50.5 M89.9,50.5h1h3.6h1
			v-1v-3.6v-1h-1h-3.6h-1v1v3.6V50.5 M68.3,50.5h1h3.6h1v-1v-3.6v-1h-1h-3.6h-1v1v3.6V50.5 M61.1,50.5h1h3.6h1v-1v-3.6v-1h-1h-3.6
			h-1v1v3.6V50.5 M10.7,50.5h1h3.6h1v-1v-3.6v-1h-1h-3.6h-1v1v3.6V50.5 M3.5,50.5h1h3.6h1v-1v-3.6v-1h-1H4.5h-1v1v3.6V50.5
			 M586.7,57.7h1h3.6h1v-1v-3.6v-1h-1h-3.6h-1v1v3.6V57.7 M579.5,57.7h1h3.6h1v-1v-3.6v-1h-1h-3.6h-1v1v3.6V57.7 M550.7,57.7h1h3.6
			h1v-1v-3.6v-1h-1h-3.6h-1v1v3.6V57.7 M543.5,57.7h1h3.6h1v-1v-3.6v-1h-1h-3.6h-1v1v3.6V57.7 M529.1,57.7h1h3.6h1v-1v-3.6v-1h-1
			h-3.6h-1v1v3.6V57.7 M521.9,57.7h1h3.6h1v-1v-3.6v-1h-1h-3.6h-1v1v3.6V57.7 M514.7,57.7h1h3.6h1v-1v-3.6v-1h-1h-3.6h-1v1v3.6V57.7
			 M507.5,57.7h1h3.6h1v-1v-3.6v-1h-1h-3.6h-1v1v3.6V57.7 M500.3,57.7h1h3.6h1v-1v-3.6v-1h-1h-3.6h-1v1v3.6V57.7 M493.1,57.7h1h3.6
			h1v-1v-3.6v-1h-1h-3.6h-1v1v3.6V57.7 M485.9,57.7h1h3.6h1v-1v-3.6v-1h-1h-3.6h-1v1v3.6V57.7 M442.7,57.7h1h3.6h1v-1v-3.6v-1h-1
			h-3.6h-1v1v3.6V57.7 M435.5,57.7h1h3.6h1v-1v-3.6v-1h-1h-3.6h-1v1v3.6V57.7 M406.7,57.7h1h3.6h1v-1v-3.6v-1h-1h-3.6h-1v1v3.6V57.7
			 M399.5,57.7h1h3.6h1v-1v-3.6v-1h-1h-3.6h-1v1v3.6V57.7 M392.3,57.7h1h3.6h1v-1v-3.6v-1h-1h-3.6h-1v1v3.6V57.7 M385.1,57.7h1h3.6
			h1v-1v-3.6v-1h-1h-3.6h-1v1v3.6V57.7 M377.9,57.7h1h3.6h1v-1v-3.6v-1h-1h-3.6h-1v1v3.6V57.7 M370.7,57.7h1h3.6h1v-1v-3.6v-1h-1
			h-3.6h-1v1v3.6V57.7 M356.3,57.7h1h3.6h1v-1v-3.6v-1h-1h-3.6h-1v1v3.6V57.7 M349.1,57.7h1h3.6h1v-1v-3.6v-1h-1h-3.6h-1v1v3.6V57.7
			 M320.3,57.7h1h3.6h1v-1v-3.6v-1h-1h-3.6h-1v1v3.6V57.7 M313.1,57.7h1h3.6h1v-1v-3.6v-1h-1h-3.6h-1v1v3.6V57.7 M269.9,57.7h1h3.6
			h1v-1v-3.6v-1h-1h-3.6h-1v1v3.6V57.7 M262.7,57.7h1h3.6h1v-1v-3.6v-1h-1h-3.6h-1v1v3.6V57.7 M241.1,57.7h1h3.6h1v-1v-3.6v-1h-1
			h-3.6h-1v1v3.6V57.7 M233.9,57.7h1h3.6h1v-1v-3.6v-1h-1h-3.6h-1v1v3.6V57.7 M205.1,57.7h1h3.6h1v-1v-3.6v-1h-1h-3.6h-1v1v3.6V57.7
			 M197.9,57.7h1h3.6h1v-1v-3.6v-1h-1h-3.6h-1v1v3.6V57.7 M183.5,57.7h1h3.6h1v-1v-3.6v-1h-1h-3.6h-1v1v3.6V57.7 M176.3,57.7h1h3.6
			h1v-1v-3.6v-1h-1h-3.6h-1v1v3.6V57.7 M147.5,57.7h1h3.6h1v-1v-3.6v-1h-1h-3.6h-1v1v3.6V57.7 M140.3,57.7h1h3.6h1v-1v-3.6v-1h-1
			h-3.6h-1v1v3.6V57.7 M125.9,57.7h1h3.6h1v-1v-3.6v-1h-1h-3.6h-1v1v3.6V57.7 M118.7,57.7h1h3.6h1v-1v-3.6v-1h-1h-3.6h-1v1v3.6V57.7
			 M97.1,57.7h1h3.6h1v-1v-3.6v-1h-1h-3.6h-1v1v3.6V57.7 M89.9,57.7h1h3.6h1v-1v-3.6v-1h-1h-3.6h-1v1v3.6V57.7 M68.3,57.7h1h3.6h1
			v-1v-3.6v-1h-1h-3.6h-1v1v3.6V57.7 M61.1,57.7h1h3.6h1v-1v-3.6v-1h-1h-3.6h-1v1v3.6V57.7 M39.5,57.7h1h3.6h1v-1v-3.6v-1h-1h-3.6
			h-1v1v3.6V57.7 M32.3,57.7h1h3.6h1v-1v-3.6v-1h-1h-3.6h-1v1v3.6V57.7 M25.1,57.7h1h3.6h1v-1v-3.6v-1h-1h-3.6h-1v1v3.6V57.7
			 M17.9,57.7h1h3.6h1v-1v-3.6v-1h-1h-3.6h-1v1v3.6V57.7 M10.7,57.7h1h3.6h1v-1v-3.6v-1h-1h-3.6h-1v1v3.6V57.7 M3.5,57.7h1h3.6h1v-1
			v-3.6v-1h-1H4.5h-1v1v3.6V57.7 M586.7,64.9h1h3.6h1v-1v-3.6v-1h-1h-3.6h-1v1v3.6V64.9 M579.5,64.9h1h3.6h1v-1v-3.6v-1h-1h-3.6h-1
			v1v3.6V64.9 M550.7,64.9h1h3.6h1v-1v-3.6v-1h-1h-3.6h-1v1v3.6V64.9 M543.5,64.9h1h3.6h1v-1v-3.6v-1h-1h-3.6h-1v1v3.6V64.9
			 M529.1,64.9h1h3.6h1v-1v-3.6v-1h-1h-3.6h-1v1v3.6V64.9 M521.9,64.9h1h3.6h1v-1v-3.6v-1h-1h-3.6h-1v1v3.6V64.9 M514.7,64.9h1h3.6
			h1v-1v-3.6v-1h-1h-3.6h-1v1v3.6V64.9 M507.5,64.9h1h3.6h1v-1v-3.6v-1h-1h-3.6h-1v1v3.6V64.9 M500.3,64.9h1h3.6h1v-1v-3.6v-1h-1
			h-3.6h-1v1v3.6V64.9 M493.1,64.9h1h3.6h1v-1v-3.6v-1h-1h-3.6h-1v1v3.6V64.9 M485.9,64.9h1h3.6h1v-1v-3.6v-1h-1h-3.6h-1v1v3.6V64.9
			 M442.7,64.9h1h3.6h1v-1v-3.6v-1h-1h-3.6h-1v1v3.6V64.9 M435.5,64.9h1h3.6h1v-1v-3.6v-1h-1h-3.6h-1v1v3.6V64.9 M413.9,64.9h1h3.6
			h1v-1v-3.6v-1h-1h-3.6h-1v1v3.6V64.9 M406.7,64.9h1h3.6h1v-1v-3.6v-1h-1h-3.6h-1v1v3.6V64.9 M399.5,64.9h1h3.6h1v-1v-3.6v-1h-1
			h-3.6h-1v1v3.6V64.9 M392.3,64.9h1h3.6h1v-1v-3.6v-1h-1h-3.6h-1v1v3.6V64.9 M385.1,64.9h1h3.6h1v-1v-3.6v-1h-1h-3.6h-1v1v3.6V64.9
			 M377.9,64.9h1h3.6h1v-1v-3.6v-1h-1h-3.6h-1v1v3.6V64.9 M356.3,64.9h1h3.6h1v-1v-3.6v-1h-1h-3.6h-1v1v3.6V64.9 M349.1,64.9h1h3.6
			h1v-1v-3.6v-1h-1h-3.6h-1v1v3.6V64.9 M320.3,64.9h1h3.6h1v-1v-3.6v-1h-1h-3.6h-1v1v3.6V64.9 M313.1,64.9h1h3.6h1v-1v-3.6v-1h-1
			h-3.6h-1v1v3.6V64.9 M269.9,64.9h1h3.6h1v-1v-3.6v-1h-1h-3.6h-1v1v3.6V64.9 M262.7,64.9h1h3.6h1v-1v-3.6v-1h-1h-3.6h-1v1v3.6V64.9
			 M241.1,64.9h1h3.6h1v-1v-3.6v-1h-1h-3.6h-1v1v3.6V64.9 M233.9,64.9h1h3.6h1v-1v-3.6v-1h-1h-3.6h-1v1v3.6V64.9 M205.1,64.9h1h3.6
			h1v-1v-3.6v-1h-1h-3.6h-1v1v3.6V64.9 M197.9,64.9h1h3.6h1v-1v-3.6v-1h-1h-3.6h-1v1v3.6V64.9 M183.5,64.9h1h3.6h1v-1v-3.6v-1h-1
			h-3.6h-1v1v3.6V64.9 M176.3,64.9h1h3.6h1v-1v-3.6v-1h-1h-3.6h-1v1v3.6V64.9 M147.5,64.9h1h3.6h1v-1v-3.6v-1h-1h-3.6h-1v1v3.6V64.9
			 M140.3,64.9h1h3.6h1v-1v-3.6v-1h-1h-3.6h-1v1v3.6V64.9 M125.9,64.9h1h3.6h1v-1v-3.6v-1h-1h-3.6h-1v1v3.6V64.9 M118.7,64.9h1h3.6
			h1v-1v-3.6v-1h-1h-3.6h-1v1v3.6V64.9 M97.1,64.9h1h3.6h1v-1v-3.6v-1h-1h-3.6h-1v1v3.6V64.9 M89.9,64.9h1h3.6h1v-1v-3.6v-1h-1h-3.6
			h-1v1v3.6V64.9 M68.3,64.9h1h3.6h1v-1v-3.6v-1h-1h-3.6h-1v1v3.6V64.9 M61.1,64.9h1h3.6h1v-1v-3.6v-1h-1h-3.6h-1v1v3.6V64.9
			 M46.7,64.9h1h3.6h1v-1v-3.6v-1h-1h-3.6h-1v1v3.6V64.9 M39.5,64.9h1h3.6h1v-1v-3.6v-1h-1h-3.6h-1v1v3.6V64.9 M32.3,64.9h1h3.6h1
			v-1v-3.6v-1h-1h-3.6h-1v1v3.6V64.9 M25.1,64.9h1h3.6h1v-1v-3.6v-1h-1h-3.6h-1v1v3.6V64.9 M17.9,64.9h1h3.6h1v-1v-3.6v-1h-1h-3.6
			h-1v1v3.6V64.9 M10.7,64.9h1h3.6h1v-1v-3.6v-1h-1h-3.6h-1v1v3.6V64.9 M586.7,72.1h1h3.6h1v-1v-3.6v-1h-1h-3.6h-1v1v3.6V72.1
			 M579.5,72.1h1h3.6h1v-1v-3.6v-1h-1h-3.6h-1v1v3.6V72.1 M550.7,72.1h1h3.6h1v-1v-3.6v-1h-1h-3.6h-1v1v3.6V72.1 M543.5,72.1h1h3.6
			h1v-1v-3.6v-1h-1h-3.6h-1v1v3.6V72.1 M493.1,72.1h1h3.6h1v-1v-3.6v-1h-1h-3.6h-1v1v3.6V72.1 M485.9,72.1h1h3.6h1v-1v-3.6v-1h-1
			h-3.6h-1v1v3.6V72.1 M471.5,72.1h1h3.6h1v-1v-3.6v-1h-1h-3.6h-1v1v3.6V72.1 M464.3,72.1h1h3.6h1v-1v-3.6v-1h-1h-3.6h-1v1v3.6V72.1
			 M442.7,72.1h1h3.6h1v-1v-3.6v-1h-1h-3.6h-1v1v3.6V72.1 M435.5,72.1h1h3.6h1v-1v-3.6v-1h-1h-3.6h-1v1v3.6V72.1 M413.9,72.1h1h3.6
			h1v-1v-3.6v-1h-1h-3.6h-1v1v3.6V72.1 M406.7,72.1h1h3.6h1v-1v-3.6v-1h-1h-3.6h-1v1v3.6V72.1 M356.3,72.1h1h3.6h1v-1v-3.6v-1h-1
			h-3.6h-1v1v3.6V72.1 M349.1,72.1h1h3.6h1v-1v-3.6v-1h-1h-3.6h-1v1v3.6V72.1 M320.3,72.1h1h3.6h1v-1v-3.6v-1h-1h-3.6h-1v1v3.6V72.1
			 M313.1,72.1h1h3.6h1v-1v-3.6v-1h-1h-3.6h-1v1v3.6V72.1 M298.7,72.1h1h3.6h1v-1v-3.6v-1h-1h-3.6h-1v1v3.6V72.1 M291.5,72.1h1h3.6
			h1v-1v-3.6v-1h-1h-3.6h-1v1v3.6V72.1 M269.9,72.1h1h3.6h1v-1v-3.6v-1h-1h-3.6h-1v1v3.6V72.1 M262.7,72.1h1h3.6h1v-1v-3.6v-1h-1
			h-3.6h-1v1v3.6V72.1 M241.1,72.1h1h3.6h1v-1v-3.6v-1h-1h-3.6h-1v1v3.6V72.1 M233.9,72.1h1h3.6h1v-1v-3.6v-1h-1h-3.6h-1v1v3.6V72.1
			 M205.1,72.1h1h3.6h1v-1v-3.6v-1h-1h-3.6h-1v1v3.6V72.1 M197.9,72.1h1h3.6h1v-1v-3.6v-1h-1h-3.6h-1v1v3.6V72.1 M183.5,72.1h1h3.6
			h1v-1v-3.6v-1h-1h-3.6h-1v1v3.6V72.1 M176.3,72.1h1h3.6h1v-1v-3.6v-1h-1h-3.6h-1v1v3.6V72.1 M147.5,72.1h1h3.6h1v-1v-3.6v-1h-1
			h-3.6h-1v1v3.6V72.1 M140.3,72.1h1h3.6h1v-1v-3.6v-1h-1h-3.6h-1v1v3.6V72.1 M125.9,72.1h1h3.6h1v-1v-3.6v-1h-1h-3.6h-1v1v3.6V72.1
			 M118.7,72.1h1h3.6h1v-1v-3.6v-1h-1h-3.6h-1v1v3.6V72.1 M97.1,72.1h1h3.6h1v-1v-3.6v-1h-1h-3.6h-1v1v3.6V72.1 M89.9,72.1h1h3.6h1
			v-1v-3.6v-1h-1h-3.6h-1v1v3.6V72.1 M68.3,72.1h1h3.6h1v-1v-3.6v-1h-1h-3.6h-1v1v3.6V72.1 M61.1,72.1h1h3.6h1v-1v-3.6v-1h-1h-3.6
			h-1v1v3.6V72.1 M46.7,72.1h1h3.6h1v-1v-3.6v-1h-1h-3.6h-1v1v3.6V72.1 M39.5,72.1h1h3.6h1v-1v-3.6v-1h-1h-3.6h-1v1v3.6V72.1
			 M586.7,79.3h1h3.6h1v-1v-3.6v-1h-1h-3.6h-1v1v3.6V79.3 M579.5,79.3h1h3.6h1v-1v-3.6v-1h-1h-3.6h-1v1v3.6V79.3 M572.3,79.3h1h3.6
			h1v-1v-3.6v-1h-1h-3.6h-1v1v3.6V79.3 M565.1,79.3h1h3.6h1v-1v-3.6v-1h-1h-3.6h-1v1v3.6V79.3 M557.9,79.3h1h3.6h1v-1v-3.6v-1h-1
			h-3.6h-1v1v3.6V79.3 M550.7,79.3h1h3.6h1v-1v-3.6v-1h-1h-3.6h-1v1v3.6V79.3 M543.5,79.3h1h3.6h1v-1v-3.6v-1h-1h-3.6h-1v1v3.6V79.3
			 M529.1,79.3h1h3.6h1v-1v-3.6v-1h-1h-3.6h-1v1v3.6V79.3 M521.9,79.3h1h3.6h1v-1v-3.6v-1h-1h-3.6h-1v1v3.6V79.3 M514.7,79.3h1h3.6
			h1v-1v-3.6v-1h-1h-3.6h-1v1v3.6V79.3 M507.5,79.3h1h3.6h1v-1v-3.6v-1h-1h-3.6h-1v1v3.6V79.3 M500.3,79.3h1h3.6h1v-1v-3.6v-1h-1
			h-3.6h-1v1v3.6V79.3 M493.1,79.3h1h3.6h1v-1v-3.6v-1h-1h-3.6h-1v1v3.6V79.3 M485.9,79.3h1h3.6h1v-1v-3.6v-1h-1h-3.6h-1v1v3.6V79.3
			 M471.5,79.3h1h3.6h1v-1v-3.6v-1h-1h-3.6h-1v1v3.6V79.3 M464.3,79.3h1h3.6h1v-1v-3.6v-1h-1h-3.6h-1v1v3.6V79.3 M457.1,79.3h1h3.6
			h1v-1v-3.6v-1h-1h-3.6h-1v1v3.6V79.3 M449.9,79.3h1h3.6h1v-1v-3.6v-1h-1h-3.6h-1v1v3.6V79.3 M442.7,79.3h1h3.6h1v-1v-3.6v-1h-1
			h-3.6h-1v1v3.6V79.3 M435.5,79.3h1h3.6h1v-1v-3.6v-1h-1h-3.6h-1v1v3.6V79.3 M413.9,79.3h1h3.6h1v-1v-3.6v-1h-1h-3.6h-1v1v3.6V79.3
			 M406.7,79.3h1h3.6h1v-1v-3.6v-1h-1h-3.6h-1v1v3.6V79.3 M399.5,79.3h1h3.6h1v-1v-3.6v-1h-1h-3.6h-1v1v3.6V79.3 M392.3,79.3h1h3.6
			h1v-1v-3.6v-1h-1h-3.6h-1v1v3.6V79.3 M385.1,79.3h1h3.6h1v-1v-3.6v-1h-1h-3.6h-1v1v3.6V79.3 M377.9,79.3h1h3.6h1v-1v-3.6v-1h-1
			h-3.6h-1v1v3.6V79.3 M370.7,79.3h1h3.6h1v-1v-3.6v-1h-1h-3.6h-1v1v3.6V79.3 M356.3,79.3h1h3.6h1v-1v-3.6v-1h-1h-3.6h-1v1v3.6V79.3
			 M349.1,79.3h1h3.6h1v-1v-3.6v-1h-1h-3.6h-1v1v3.6V79.3 M320.3,79.3h1h3.6h1v-1v-3.6v-1h-1h-3.6h-1v1v3.6V79.3 M313.1,79.3h1h3.6
			h1v-1v-3.6v-1h-1h-3.6h-1v1v3.6V79.3 M298.7,79.3h1h3.6h1v-1v-3.6v-1h-1h-3.6h-1v1v3.6V79.3 M291.5,79.3h1h3.6h1v-1v-3.6v-1h-1
			h-3.6h-1v1v3.6V79.3 M284.3,79.3h1h3.6h1v-1v-3.6v-1h-1h-3.6h-1v1v3.6V79.3 M277.1,79.3h1h3.6h1v-1v-3.6v-1h-1h-3.6h-1v1v3.6V79.3
			 M269.9,79.3h1h3.6h1v-1v-3.6v-1h-1h-3.6h-1v1v3.6V79.3 M262.7,79.3h1h3.6h1v-1v-3.6v-1h-1h-3.6h-1v1v3.6V79.3 M241.1,79.3h1h3.6
			h1v-1v-3.6v-1h-1h-3.6h-1v1v3.6V79.3 M233.9,79.3h1h3.6h1v-1v-3.6v-1h-1h-3.6h-1v1v3.6V79.3 M226.7,79.3h1h3.6h1v-1v-3.6v-1h-1
			h-3.6h-1v1v3.6V79.3 M219.5,79.3h1h3.6h1v-1v-3.6v-1h-1h-3.6h-1v1v3.6V79.3 M212.3,79.3h1h3.6h1v-1v-3.6v-1h-1h-3.6h-1v1v3.6V79.3
			 M205.1,79.3h1h3.6h1v-1v-3.6v-1h-1h-3.6h-1v1v3.6V79.3 M197.9,79.3h1h3.6h1v-1v-3.6v-1h-1h-3.6h-1v1v3.6V79.3 M183.5,79.3h1h3.6
			h1v-1v-3.6v-1h-1h-3.6h-1v1v3.6V79.3 M176.3,79.3h1h3.6h1v-1v-3.6v-1h-1h-3.6h-1v1v3.6V79.3 M169.1,79.3h1h3.6h1v-1v-3.6v-1h-1
			h-3.6h-1v1v3.6V79.3 M161.9,79.3h1h3.6h1v-1v-3.6v-1h-1h-3.6h-1v1v3.6V79.3 M154.7,79.3h1h3.6h1v-1v-3.6v-1h-1h-3.6h-1v1v3.6V79.3
			 M147.5,79.3h1h3.6h1v-1v-3.6v-1h-1h-3.6h-1v1v3.6V79.3 M140.3,79.3h1h3.6h1v-1v-3.6v-1h-1h-3.6h-1v1v3.6V79.3 M125.9,79.3h1h3.6
			h1v-1v-3.6v-1h-1h-3.6h-1v1v3.6V79.3 M118.7,79.3h1h3.6h1v-1v-3.6v-1h-1h-3.6h-1v1v3.6V79.3 M97.1,79.3h1h3.6h1v-1v-3.6v-1h-1
			h-3.6h-1v1v3.6V79.3 M89.9,79.3h1h3.6h1v-1v-3.6v-1h-1h-3.6h-1v1v3.6V79.3 M68.3,79.3h1h3.6h1v-1v-3.6v-1h-1h-3.6h-1v1v3.6V79.3
			 M61.1,79.3h1h3.6h1v-1v-3.6v-1h-1h-3.6h-1v1v3.6V79.3 M46.7,79.3h1h3.6h1v-1v-3.6v-1h-1h-3.6h-1v1v3.6V79.3 M39.5,79.3h1h3.6h1
			v-1v-3.6v-1h-1h-3.6h-1v1v3.6V79.3 M32.3,79.3h1h3.6h1v-1v-3.6v-1h-1h-3.6h-1v1v3.6V79.3 M25.1,79.3h1h3.6h1v-1v-3.6v-1h-1h-3.6
			h-1v1v3.6V79.3 M17.9,79.3h1h3.6h1v-1v-3.6v-1h-1h-3.6h-1v1v3.6V79.3 M10.7,79.3h1h3.6h1v-1v-3.6v-1h-1h-3.6h-1v1v3.6V79.3
			 M3.5,79.3h1h3.6h1v-1v-3.6v-1h-1H4.5h-1v1v3.6V79.3 M579.5,86.5h1h3.6h1v-1v-3.6v-1h-1h-3.6h-1v1v3.6V86.5 M572.3,86.5h1h3.6h1
			v-1v-3.6v-1h-1h-3.6h-1v1v3.6V86.5 M565.1,86.5h1h3.6h1v-1v-3.6v-1h-1h-3.6h-1v1v3.6V86.5 M557.9,86.5h1h3.6h1v-1v-3.6v-1h-1h-3.6
			h-1v1v3.6V86.5 M550.7,86.5h1h3.6h1v-1v-3.6v-1h-1h-3.6h-1v1v3.6V86.5 M543.5,86.5h1h3.6h1v-1v-3.6v-1h-1h-3.6h-1v1v3.6V86.5
			 M529.1,86.5h1h3.6h1v-1v-3.6v-1h-1h-3.6h-1v1v3.6V86.5 M521.9,86.5h1h3.6h1v-1v-3.6v-1h-1h-3.6h-1v1v3.6V86.5 M514.7,86.5h1h3.6
			h1v-1v-3.6v-1h-1h-3.6h-1v1v3.6V86.5 M507.5,86.5h1h3.6h1v-1v-3.6v-1h-1h-3.6h-1v1v3.6V86.5 M500.3,86.5h1h3.6h1v-1v-3.6v-1h-1
			h-3.6h-1v1v3.6V86.5 M493.1,86.5h1h3.6h1v-1v-3.6v-1h-1h-3.6h-1v1v3.6V86.5 M464.3,86.5h1h3.6h1v-1v-3.6v-1h-1h-3.6h-1v1v3.6V86.5
			 M457.1,86.5h1h3.6h1v-1v-3.6v-1h-1h-3.6h-1v1v3.6V86.5 M449.9,86.5h1h3.6h1v-1v-3.6v-1h-1h-3.6h-1v1v3.6V86.5 M442.7,86.5h1h3.6
			h1v-1v-3.6v-1h-1h-3.6h-1v1v3.6V86.5 M406.7,86.5h1h3.6h1v-1v-3.6v-1h-1h-3.6h-1v1v3.6V86.5 M399.5,86.5h1h3.6h1v-1v-3.6v-1h-1
			h-3.6h-1v1v3.6V86.5 M392.3,86.5h1h3.6h1v-1v-3.6v-1h-1h-3.6h-1v1v3.6V86.5 M385.1,86.5h1h3.6h1v-1v-3.6v-1h-1h-3.6h-1v1v3.6V86.5
			 M377.9,86.5h1h3.6h1v-1v-3.6v-1h-1h-3.6h-1v1v3.6V86.5 M370.7,86.5h1h3.6h1v-1v-3.6v-1h-1h-3.6h-1v1v3.6V86.5 M356.3,86.5h1h3.6
			h1v-1v-3.6v-1h-1h-3.6h-1v1v3.6V86.5 M349.1,86.5h1h3.6h1v-1v-3.6v-1h-1h-3.6h-1v1v3.6V86.5 M320.3,86.5h1h3.6h1v-1v-3.6v-1h-1
			h-3.6h-1v1v3.6V86.5 M313.1,86.5h1h3.6h1v-1v-3.6v-1h-1h-3.6h-1v1v3.6V86.5 M291.5,86.5h1h3.6h1v-1v-3.6v-1h-1h-3.6h-1v1v3.6V86.5
			 M284.3,86.5h1h3.6h1v-1v-3.6v-1h-1h-3.6h-1v1v3.6V86.5 M277.1,86.5h1h3.6h1v-1v-3.6v-1h-1h-3.6h-1v1v3.6V86.5 M269.9,86.5h1h3.6
			h1v-1v-3.6v-1h-1h-3.6h-1v1v3.6V86.5 M233.9,86.5h1h3.6h1v-1v-3.6v-1h-1h-3.6h-1v1v3.6V86.5 M226.7,86.5h1h3.6h1v-1v-3.6v-1h-1
			h-3.6h-1v1v3.6V86.5 M219.5,86.5h1h3.6h1v-1v-3.6v-1h-1h-3.6h-1v1v3.6V86.5 M212.3,86.5h1h3.6h1v-1v-3.6v-1h-1h-3.6h-1v1v3.6V86.5
			 M205.1,86.5h1h3.6h1v-1v-3.6v-1h-1h-3.6h-1v1v3.6V86.5 M176.3,86.5h1h3.6h1v-1v-3.6v-1h-1h-3.6h-1v1v3.6V86.5 M169.1,86.5h1h3.6
			h1v-1v-3.6v-1h-1h-3.6h-1v1v3.6V86.5 M161.9,86.5h1h3.6h1v-1v-3.6v-1h-1h-3.6h-1v1v3.6V86.5 M154.7,86.5h1h3.6h1v-1v-3.6v-1h-1
			h-3.6h-1v1v3.6V86.5 M147.5,86.5h1h3.6h1v-1v-3.6v-1h-1h-3.6h-1v1v3.6V86.5 M125.9,86.5h1h3.6h1v-1v-3.6v-1h-1h-3.6h-1v1v3.6V86.5
			 M118.7,86.5h1h3.6h1v-1v-3.6v-1h-1h-3.6h-1v1v3.6V86.5 M97.1,86.5h1h3.6h1v-1v-3.6v-1h-1h-3.6h-1v1v3.6V86.5 M89.9,86.5h1h3.6h1
			v-1v-3.6v-1h-1h-3.6h-1v1v3.6V86.5 M68.3,86.5h1h3.6h1v-1v-3.6v-1h-1h-3.6h-1v1v3.6V86.5 M61.1,86.5h1h3.6h1v-1v-3.6v-1h-1h-3.6
			h-1v1v3.6V86.5 M39.5,86.5h1h3.6h1v-1v-3.6v-1h-1h-3.6h-1v1v3.6V86.5 M32.3,86.5h1h3.6h1v-1v-3.6v-1h-1h-3.6h-1v1v3.6V86.5
			 M25.1,86.5h1h3.6h1v-1v-3.6v-1h-1h-3.6h-1v1v3.6V86.5 M17.9,86.5h1h3.6h1v-1v-3.6v-1h-1h-3.6h-1v1v3.6V86.5 M10.7,86.5h1h3.6h1
			v-1v-3.6v-1h-1h-3.6h-1v1v3.6V86.5 M3.5,86.5h1h3.6h1v-1v-3.6v-1h-1H4.5h-1v1v3.6V86.5 M550.7,93.7h1h3.6h1v-1v-3.6v-1h-1h-3.6h-1
			v1v3.6V93.7 M543.5,93.7h1h3.6h1v-1v-3.6v-1h-1h-3.6h-1v1v3.6V93.7 M550.7,100.9h1h3.6h1v-1v-3.6v-1h-1h-3.6h-1v1v3.6V100.9
			 M543.5,100.9h1h3.6h1v-1v-3.6v-1h-1h-3.6h-1v1v3.6V100.9 M550.7,108.1h1h3.6h1v-1v-3.6v-1h-1h-3.6h-1v1v3.6V108.1 M543.5,108.1h1
			h3.6h1v-1v-3.6v-1h-1h-3.6h-1v1v3.6V108.1 M550.7,115.3h1h3.6h1v-1v-3.6v-1h-1h-3.6h-1v1v3.6V115.3 M543.5,115.3h1h3.6h1v-1v-3.6
			v-1h-1h-3.6h-1v1v3.6V115.3 M594.5,0.5H0.5v117h594V0.5L594.5,0.5z M443.7,6.3V2.7h3.6v3.6H443.7L443.7,6.3z M436.5,6.3V2.7h3.6
			v3.6H436.5L436.5,6.3z M321.3,6.3V2.7h3.6v3.6H321.3L321.3,6.3z M314.1,6.3V2.7h3.6v3.6H314.1L314.1,6.3z M270.9,6.3V2.7h3.6v3.6
			H270.9L270.9,6.3z M263.7,6.3V2.7h3.6v3.6H263.7L263.7,6.3z M443.7,13.5V9.9h3.6v3.6H443.7L443.7,13.5z M436.5,13.5V9.9h3.6v3.6
			H436.5L436.5,13.5z M321.3,13.5V9.9h3.6v3.6H321.3L321.3,13.5z M314.1,13.5V9.9h3.6v3.6H314.1L314.1,13.5z M270.9,13.5V9.9h3.6
			v3.6H270.9L270.9,13.5z M263.7,13.5V9.9h3.6v3.6H263.7L263.7,13.5z M443.7,20.7v-3.6h3.6v3.6H443.7L443.7,20.7z M436.5,20.7v-3.6
			h3.6v3.6H436.5L436.5,20.7z M321.3,20.7v-3.6h3.6v3.6H321.3L321.3,20.7z M314.1,20.7v-3.6h3.6v3.6H314.1L314.1,20.7z M270.9,20.7
			v-3.6h3.6v3.6H270.9L270.9,20.7z M263.7,20.7v-3.6h3.6v3.6H263.7L263.7,20.7z M443.7,27.9v-3.6h3.6v3.6H443.7L443.7,27.9z
			 M436.5,27.9v-3.6h3.6v3.6H436.5L436.5,27.9z M321.3,27.9v-3.6h3.6v3.6H321.3L321.3,27.9z M314.1,27.9v-3.6h3.6v3.6H314.1
			L314.1,27.9z M270.9,27.9v-3.6h3.6v3.6H270.9L270.9,27.9z M263.7,27.9v-3.6h3.6v3.6H263.7L263.7,27.9z M580.5,35.1v-3.6h3.6v3.6
			H580.5L580.5,35.1z M573.3,35.1v-3.6h3.6v3.6H573.3L573.3,35.1z M566.1,35.1v-3.6h3.6v3.6H566.1L566.1,35.1z M558.9,35.1v-3.6h3.6
			v3.6H558.9L558.9,35.1z M551.7,35.1v-3.6h3.6v3.6H551.7L551.7,35.1z M544.5,35.1v-3.6h3.6v3.6H544.5L544.5,35.1z M522.9,35.1v-3.6
			h3.6v3.6H522.9L522.9,35.1z M515.7,35.1v-3.6h3.6v3.6H515.7L515.7,35.1z M508.5,35.1v-3.6h3.6v3.6H508.5L508.5,35.1z M501.3,35.1
			v-3.6h3.6v3.6H501.3L501.3,35.1z M494.1,35.1v-3.6h3.6v3.6H494.1L494.1,35.1z M458.1,35.1v-3.6h3.6v3.6H458.1L458.1,35.1z
			 M450.9,35.1v-3.6h3.6v3.6H450.9L450.9,35.1z M443.7,35.1v-3.6h3.6v3.6H443.7L443.7,35.1z M436.5,35.1v-3.6h3.6v3.6H436.5
			L436.5,35.1z M429.3,35.1v-3.6h3.6v3.6H429.3L429.3,35.1z M414.9,35.1v-3.6h3.6v3.6H414.9L414.9,35.1z M407.7,35.1v-3.6h3.6v3.6
			H407.7L407.7,35.1z M400.5,35.1v-3.6h3.6v3.6H400.5L400.5,35.1z M393.3,35.1v-3.6h3.6v3.6H393.3L393.3,35.1z M386.1,35.1v-3.6h3.6
			v3.6H386.1L386.1,35.1z M378.9,35.1v-3.6h3.6v3.6H378.9L378.9,35.1z M350.1,35.1v-3.6h3.6v3.6H350.1L350.1,35.1z M342.9,35.1v-3.6
			h3.6v3.6H342.9L342.9,35.1z M335.7,35.1v-3.6h3.6v3.6H335.7L335.7,35.1z M328.5,35.1v-3.6h3.6v3.6H328.5L328.5,35.1z M321.3,35.1
			v-3.6h3.6v3.6H321.3L321.3,35.1z M314.1,35.1v-3.6h3.6v3.6H314.1L314.1,35.1z M285.3,35.1v-3.6h3.6v3.6H285.3L285.3,35.1z
			 M278.1,35.1v-3.6h3.6v3.6H278.1L278.1,35.1z M270.9,35.1v-3.6h3.6v3.6H270.9L270.9,35.1z M263.7,35.1v-3.6h3.6v3.6H263.7
			L263.7,35.1z M256.5,35.1v-3.6h3.6v3.6H256.5L256.5,35.1z M234.9,35.1v-3.6h3.6v3.6H234.9L234.9,35.1z M227.7,35.1v-3.6h3.6v3.6
			H227.7L227.7,35.1z M220.5,35.1v-3.6h3.6v3.6H220.5L220.5,35.1z M213.3,35.1v-3.6h3.6v3.6H213.3L213.3,35.1z M206.1,35.1v-3.6h3.6
			v3.6H206.1L206.1,35.1z M177.3,35.1v-3.6h3.6v3.6H177.3L177.3,35.1z M170.1,35.1v-3.6h3.6v3.6H170.1L170.1,35.1z M162.9,35.1v-3.6
			h3.6v3.6H162.9L162.9,35.1z M155.7,35.1v-3.6h3.6v3.6H155.7L155.7,35.1z M148.5,35.1v-3.6h3.6v3.6H148.5L148.5,35.1z M119.7,35.1
			v-3.6h3.6v3.6H119.7L119.7,35.1z M112.5,35.1v-3.6h3.6v3.6H112.5L112.5,35.1z M105.3,35.1v-3.6h3.6v3.6H105.3L105.3,35.1z
			 M90.9,35.1v-3.6h3.6v3.6H90.9L90.9,35.1z M83.7,35.1v-3.6h3.6v3.6H83.7L83.7,35.1z M76.5,35.1v-3.6h3.6v3.6H76.5L76.5,35.1z
			 M69.3,35.1v-3.6h3.6v3.6H69.3L69.3,35.1z M62.1,35.1v-3.6h3.6v3.6H62.1L62.1,35.1z M47.7,35.1v-3.6h3.6v3.6H47.7L47.7,35.1z
			 M40.5,35.1v-3.6h3.6v3.6H40.5L40.5,35.1z M33.3,35.1v-3.6h3.6v3.6H33.3L33.3,35.1z M26.1,35.1v-3.6h3.6v3.6H26.1L26.1,35.1z
			 M18.9,35.1v-3.6h3.6v3.6H18.9L18.9,35.1z M11.7,35.1v-3.6h3.6v3.6H11.7L11.7,35.1z M587.7,42.3v-3.6h3.6v3.6H587.7L587.7,42.3z
			 M580.5,42.3v-3.6h3.6v3.6H580.5L580.5,42.3z M573.3,42.3v-3.6h3.6v3.6H573.3L573.3,42.3z M566.1,42.3v-3.6h3.6v3.6H566.1
			L566.1,42.3z M558.9,42.3v-3.6h3.6v3.6H558.9L558.9,42.3z M551.7,42.3v-3.6h3.6v3.6H551.7L551.7,42.3z M544.5,42.3v-3.6h3.6v3.6
			H544.5L544.5,42.3z M530.1,42.3v-3.6h3.6v3.6H530.1L530.1,42.3z M522.9,42.3v-3.6h3.6v3.6H522.9L522.9,42.3z M515.7,42.3v-3.6h3.6
			v3.6H515.7L515.7,42.3z M508.5,42.3v-3.6h3.6v3.6H508.5L508.5,42.3z M501.3,42.3v-3.6h3.6v3.6H501.3L501.3,42.3z M494.1,42.3v-3.6
			h3.6v3.6H494.1L494.1,42.3z M486.9,42.3v-3.6h3.6v3.6H486.9L486.9,42.3z M458.1,42.3v-3.6h3.6v3.6H458.1L458.1,42.3z M450.9,42.3
			v-3.6h3.6v3.6H450.9L450.9,42.3z M443.7,42.3v-3.6h3.6v3.6H443.7L443.7,42.3z M436.5,42.3v-3.6h3.6v3.6H436.5L436.5,42.3z
			 M429.3,42.3v-3.6h3.6v3.6H429.3L429.3,42.3z M414.9,42.3v-3.6h3.6v3.6H414.9L414.9,42.3z M407.7,42.3v-3.6h3.6v3.6H407.7
			L407.7,42.3z M400.5,42.3v-3.6h3.6v3.6H400.5L400.5,42.3z M393.3,42.3v-3.6h3.6v3.6H393.3L393.3,42.3z M386.1,42.3v-3.6h3.6v3.6
			H386.1L386.1,42.3z M378.9,42.3v-3.6h3.6v3.6H378.9L378.9,42.3z M371.7,42.3v-3.6h3.6v3.6H371.7L371.7,42.3z M357.3,42.3v-3.6h3.6
			v3.6H357.3L357.3,42.3z M350.1,42.3v-3.6h3.6v3.6H350.1L350.1,42.3z M342.9,42.3v-3.6h3.6v3.6H342.9L342.9,42.3z M335.7,42.3v-3.6
			h3.6v3.6H335.7L335.7,42.3z M328.5,42.3v-3.6h3.6v3.6H328.5L328.5,42.3z M321.3,42.3v-3.6h3.6v3.6H321.3L321.3,42.3z M314.1,42.3
			v-3.6h3.6v3.6H314.1L314.1,42.3z M285.3,42.3v-3.6h3.6v3.6H285.3L285.3,42.3z M278.1,42.3v-3.6h3.6v3.6H278.1L278.1,42.3z
			 M270.9,42.3v-3.6h3.6v3.6H270.9L270.9,42.3z M263.7,42.3v-3.6h3.6v3.6H263.7L263.7,42.3z M256.5,42.3v-3.6h3.6v3.6H256.5
			L256.5,42.3z M242.1,42.3v-3.6h3.6v3.6H242.1L242.1,42.3z M234.9,42.3v-3.6h3.6v3.6H234.9L234.9,42.3z M227.7,42.3v-3.6h3.6v3.6
			H227.7L227.7,42.3z M220.5,42.3v-3.6h3.6v3.6H220.5L220.5,42.3z M213.3,42.3v-3.6h3.6v3.6H213.3L213.3,42.3z M206.1,42.3v-3.6h3.6
			v3.6H206.1L206.1,42.3z M198.9,42.3v-3.6h3.6v3.6H198.9L198.9,42.3z M184.5,42.3v-3.6h3.6v3.6H184.5L184.5,42.3z M177.3,42.3v-3.6
			h3.6v3.6H177.3L177.3,42.3z M170.1,42.3v-3.6h3.6v3.6H170.1L170.1,42.3z M162.9,42.3v-3.6h3.6v3.6H162.9L162.9,42.3z M155.7,42.3
			v-3.6h3.6v3.6H155.7L155.7,42.3z M148.5,42.3v-3.6h3.6v3.6H148.5L148.5,42.3z M141.3,42.3v-3.6h3.6v3.6H141.3L141.3,42.3z
			 M126.9,42.3v-3.6h3.6v3.6H126.9L126.9,42.3z M119.7,42.3v-3.6h3.6v3.6H119.7L119.7,42.3z M112.5,42.3v-3.6h3.6v3.6H112.5
			L112.5,42.3z M105.3,42.3v-3.6h3.6v3.6H105.3L105.3,42.3z M98.1,42.3v-3.6h3.6v3.6H98.1L98.1,42.3z M90.9,42.3v-3.6h3.6v3.6H90.9
			L90.9,42.3z M83.7,42.3v-3.6h3.6v3.6H83.7L83.7,42.3z M76.5,42.3v-3.6h3.6v3.6H76.5L76.5,42.3z M69.3,42.3v-3.6h3.6v3.6H69.3
			L69.3,42.3z M62.1,42.3v-3.6h3.6v3.6H62.1L62.1,42.3z M47.7,42.3v-3.6h3.6v3.6H47.7L47.7,42.3z M40.5,42.3v-3.6h3.6v3.6H40.5
			L40.5,42.3z M33.3,42.3v-3.6h3.6v3.6H33.3L33.3,42.3z M26.1,42.3v-3.6h3.6v3.6H26.1L26.1,42.3z M18.9,42.3v-3.6h3.6v3.6H18.9
			L18.9,42.3z M11.7,42.3v-3.6h3.6v3.6H11.7L11.7,42.3z M4.5,42.3v-3.6h3.6v3.6H4.5L4.5,42.3z M587.7,49.5v-3.6h3.6v3.6H587.7
			L587.7,49.5z M580.5,49.5v-3.6h3.6v3.6H580.5L580.5,49.5z M551.7,49.5v-3.6h3.6v3.6H551.7L551.7,49.5z M544.5,49.5v-3.6h3.6v3.6
			H544.5L544.5,49.5z M530.1,49.5v-3.6h3.6v3.6H530.1L530.1,49.5z M522.9,49.5v-3.6h3.6v3.6H522.9L522.9,49.5z M494.1,49.5v-3.6h3.6
			v3.6H494.1L494.1,49.5z M486.9,49.5v-3.6h3.6v3.6H486.9L486.9,49.5z M443.7,49.5v-3.6h3.6v3.6H443.7L443.7,49.5z M436.5,49.5v-3.6
			h3.6v3.6H436.5L436.5,49.5z M378.9,49.5v-3.6h3.6v3.6H378.9L378.9,49.5z M371.7,49.5v-3.6h3.6v3.6H371.7L371.7,49.5z M357.3,49.5
			v-3.6h3.6v3.6H357.3L357.3,49.5z M350.1,49.5v-3.6h3.6v3.6H350.1L350.1,49.5z M321.3,49.5v-3.6h3.6v3.6H321.3L321.3,49.5z
			 M314.1,49.5v-3.6h3.6v3.6H314.1L314.1,49.5z M270.9,49.5v-3.6h3.6v3.6H270.9L270.9,49.5z M263.7,49.5v-3.6h3.6v3.6H263.7
			L263.7,49.5z M242.1,49.5v-3.6h3.6v3.6H242.1L242.1,49.5z M234.9,49.5v-3.6h3.6v3.6H234.9L234.9,49.5z M206.1,49.5v-3.6h3.6v3.6
			H206.1L206.1,49.5z M198.9,49.5v-3.6h3.6v3.6H198.9L198.9,49.5z M184.5,49.5v-3.6h3.6v3.6H184.5L184.5,49.5z M177.3,49.5v-3.6h3.6
			v3.6H177.3L177.3,49.5z M148.5,49.5v-3.6h3.6v3.6H148.5L148.5,49.5z M141.3,49.5v-3.6h3.6v3.6H141.3L141.3,49.5z M126.9,49.5v-3.6
			h3.6v3.6H126.9L126.9,49.5z M119.7,49.5v-3.6h3.6v3.6H119.7L119.7,49.5z M98.1,49.5v-3.6h3.6v3.6H98.1L98.1,49.5z M90.9,49.5v-3.6
			h3.6v3.6H90.9L90.9,49.5z M69.3,49.5v-3.6h3.6v3.6H69.3L69.3,49.5z M62.1,49.5v-3.6h3.6v3.6H62.1L62.1,49.5z M11.7,49.5v-3.6h3.6
			v3.6H11.7L11.7,49.5z M4.5,49.5v-3.6h3.6v3.6H4.5L4.5,49.5z M587.7,56.7v-3.6h3.6v3.6H587.7L587.7,56.7z M580.5,56.7v-3.6h3.6v3.6
			H580.5L580.5,56.7z M551.7,56.7v-3.6h3.6v3.6H551.7L551.7,56.7z M544.5,56.7v-3.6h3.6v3.6H544.5L544.5,56.7z M530.1,56.7v-3.6h3.6
			v3.6H530.1L530.1,56.7z M522.9,56.7v-3.6h3.6v3.6H522.9L522.9,56.7z M515.7,56.7v-3.6h3.6v3.6H515.7L515.7,56.7z M508.5,56.7v-3.6
			h3.6v3.6H508.5L508.5,56.7z M501.3,56.7v-3.6h3.6v3.6H501.3L501.3,56.7z M494.1,56.7v-3.6h3.6v3.6H494.1L494.1,56.7z M486.9,56.7
			v-3.6h3.6v3.6H486.9L486.9,56.7z M443.7,56.7v-3.6h3.6v3.6H443.7L443.7,56.7z M436.5,56.7v-3.6h3.6v3.6H436.5L436.5,56.7z
			 M407.7,56.7v-3.6h3.6v3.6H407.7L407.7,56.7z M400.5,56.7v-3.6h3.6v3.6H400.5L400.5,56.7z M393.3,56.7v-3.6h3.6v3.6H393.3
			L393.3,56.7z M386.1,56.7v-3.6h3.6v3.6H386.1L386.1,56.7z M378.9,56.7v-3.6h3.6v3.6H378.9L378.9,56.7z M371.7,56.7v-3.6h3.6v3.6
			H371.7L371.7,56.7z M357.3,56.7v-3.6h3.6v3.6H357.3L357.3,56.7z M350.1,56.7v-3.6h3.6v3.6H350.1L350.1,56.7z M321.3,56.7v-3.6h3.6
			v3.6H321.3L321.3,56.7z M314.1,56.7v-3.6h3.6v3.6H314.1L314.1,56.7z M270.9,56.7v-3.6h3.6v3.6H270.9L270.9,56.7z M263.7,56.7v-3.6
			h3.6v3.6H263.7L263.7,56.7z M242.1,56.7v-3.6h3.6v3.6H242.1L242.1,56.7z M234.9,56.7v-3.6h3.6v3.6H234.9L234.9,56.7z M206.1,56.7
			v-3.6h3.6v3.6H206.1L206.1,56.7z M198.9,56.7v-3.6h3.6v3.6H198.9L198.9,56.7z M184.5,56.7v-3.6h3.6v3.6H184.5L184.5,56.7z
			 M177.3,56.7v-3.6h3.6v3.6H177.3L177.3,56.7z M148.5,56.7v-3.6h3.6v3.6H148.5L148.5,56.7z M141.3,56.7v-3.6h3.6v3.6H141.3
			L141.3,56.7z M126.9,56.7v-3.6h3.6v3.6H126.9L126.9,56.7z M119.7,56.7v-3.6h3.6v3.6H119.7L119.7,56.7z M98.1,56.7v-3.6h3.6v3.6
			H98.1L98.1,56.7z M90.9,56.7v-3.6h3.6v3.6H90.9L90.9,56.7z M69.3,56.7v-3.6h3.6v3.6H69.3L69.3,56.7z M62.1,56.7v-3.6h3.6v3.6H62.1
			L62.1,56.7z M40.5,56.7v-3.6h3.6v3.6H40.5L40.5,56.7z M33.3,56.7v-3.6h3.6v3.6H33.3L33.3,56.7z M26.1,56.7v-3.6h3.6v3.6H26.1
			L26.1,56.7z M18.9,56.7v-3.6h3.6v3.6H18.9L18.9,56.7z M11.7,56.7v-3.6h3.6v3.6H11.7L11.7,56.7z M4.5,56.7v-3.6h3.6v3.6H4.5
			L4.5,56.7z M587.7,63.9v-3.6h3.6v3.6H587.7L587.7,63.9z M580.5,63.9v-3.6h3.6v3.6H580.5L580.5,63.9z M551.7,63.9v-3.6h3.6v3.6
			H551.7L551.7,63.9z M544.5,63.9v-3.6h3.6v3.6H544.5L544.5,63.9z M530.1,63.9v-3.6h3.6v3.6H530.1L530.1,63.9z M522.9,63.9v-3.6h3.6
			v3.6H522.9L522.9,63.9z M515.7,63.9v-3.6h3.6v3.6H515.7L515.7,63.9z M508.5,63.9v-3.6h3.6v3.6H508.5L508.5,63.9z M501.3,63.9v-3.6
			h3.6v3.6H501.3L501.3,63.9z M494.1,63.9v-3.6h3.6v3.6H494.1L494.1,63.9z M486.9,63.9v-3.6h3.6v3.6H486.9L486.9,63.9z M443.7,63.9
			v-3.6h3.6v3.6H443.7L443.7,63.9z M436.5,63.9v-3.6h3.6v3.6H436.5L436.5,63.9z M414.9,63.9v-3.6h3.6v3.6H414.9L414.9,63.9z
			 M407.7,63.9v-3.6h3.6v3.6H407.7L407.7,63.9z M400.5,63.9v-3.6h3.6v3.6H400.5L400.5,63.9z M393.3,63.9v-3.6h3.6v3.6H393.3
			L393.3,63.9z M386.1,63.9v-3.6h3.6v3.6H386.1L386.1,63.9z M378.9,63.9v-3.6h3.6v3.6H378.9L378.9,63.9z M357.3,63.9v-3.6h3.6v3.6
			H357.3L357.3,63.9z M350.1,63.9v-3.6h3.6v3.6H350.1L350.1,63.9z M321.3,63.9v-3.6h3.6v3.6H321.3L321.3,63.9z M314.1,63.9v-3.6h3.6
			v3.6H314.1L314.1,63.9z M270.9,63.9v-3.6h3.6v3.6H270.9L270.9,63.9z M263.7,63.9v-3.6h3.6v3.6H263.7L263.7,63.9z M242.1,63.9v-3.6
			h3.6v3.6H242.1L242.1,63.9z M234.9,63.9v-3.6h3.6v3.6H234.9L234.9,63.9z M206.1,63.9v-3.6h3.6v3.6H206.1L206.1,63.9z M198.9,63.9
			v-3.6h3.6v3.6H198.9L198.9,63.9z M184.5,63.9v-3.6h3.6v3.6H184.5L184.5,63.9z M177.3,63.9v-3.6h3.6v3.6H177.3L177.3,63.9z
			 M148.5,63.9v-3.6h3.6v3.6H148.5L148.5,63.9z M141.3,63.9v-3.6h3.6v3.6H141.3L141.3,63.9z M126.9,63.9v-3.6h3.6v3.6H126.9
			L126.9,63.9z M119.7,63.9v-3.6h3.6v3.6H119.7L119.7,63.9z M98.1,63.9v-3.6h3.6v3.6H98.1L98.1,63.9z M90.9,63.9v-3.6h3.6v3.6H90.9
			L90.9,63.9z M69.3,63.9v-3.6h3.6v3.6H69.3L69.3,63.9z M62.1,63.9v-3.6h3.6v3.6H62.1L62.1,63.9z M47.7,63.9v-3.6h3.6v3.6H47.7
			L47.7,63.9z M40.5,63.9v-3.6h3.6v3.6H40.5L40.5,63.9z M33.3,63.9v-3.6h3.6v3.6H33.3L33.3,63.9z M26.1,63.9v-3.6h3.6v3.6H26.1
			L26.1,63.9z M18.9,63.9v-3.6h3.6v3.6H18.9L18.9,63.9z M11.7,63.9v-3.6h3.6v3.6H11.7L11.7,63.9z M587.7,71.1v-3.6h3.6v3.6H587.7
			L587.7,71.1z M580.5,71.1v-3.6h3.6v3.6H580.5L580.5,71.1z M551.7,71.1v-3.6h3.6v3.6H551.7L551.7,71.1z M544.5,71.1v-3.6h3.6v3.6
			H544.5L544.5,71.1z M494.1,71.1v-3.6h3.6v3.6H494.1L494.1,71.1z M486.9,71.1v-3.6h3.6v3.6H486.9L486.9,71.1z M472.5,71.1v-3.6h3.6
			v3.6H472.5L472.5,71.1z M465.3,71.1v-3.6h3.6v3.6H465.3L465.3,71.1z M443.7,71.1v-3.6h3.6v3.6H443.7L443.7,71.1z M436.5,71.1v-3.6
			h3.6v3.6H436.5L436.5,71.1z M414.9,71.1v-3.6h3.6v3.6H414.9L414.9,71.1z M407.7,71.1v-3.6h3.6v3.6H407.7L407.7,71.1z M357.3,71.1
			v-3.6h3.6v3.6H357.3L357.3,71.1z M350.1,71.1v-3.6h3.6v3.6H350.1L350.1,71.1z M321.3,71.1v-3.6h3.6v3.6H321.3L321.3,71.1z
			 M314.1,71.1v-3.6h3.6v3.6H314.1L314.1,71.1z M299.7,71.1v-3.6h3.6v3.6H299.7L299.7,71.1z M292.5,71.1v-3.6h3.6v3.6H292.5
			L292.5,71.1z M270.9,71.1v-3.6h3.6v3.6H270.9L270.9,71.1z M263.7,71.1v-3.6h3.6v3.6H263.7L263.7,71.1z M242.1,71.1v-3.6h3.6v3.6
			H242.1L242.1,71.1z M234.9,71.1v-3.6h3.6v3.6H234.9L234.9,71.1z M206.1,71.1v-3.6h3.6v3.6H206.1L206.1,71.1z M198.9,71.1v-3.6h3.6
			v3.6H198.9L198.9,71.1z M184.5,71.1v-3.6h3.6v3.6H184.5L184.5,71.1z M177.3,71.1v-3.6h3.6v3.6H177.3L177.3,71.1z M148.5,71.1v-3.6
			h3.6v3.6H148.5L148.5,71.1z M141.3,71.1v-3.6h3.6v3.6H141.3L141.3,71.1z M126.9,71.1v-3.6h3.6v3.6H126.9L126.9,71.1z M119.7,71.1
			v-3.6h3.6v3.6H119.7L119.7,71.1z M98.1,71.1v-3.6h3.6v3.6H98.1L98.1,71.1z M90.9,71.1v-3.6h3.6v3.6H90.9L90.9,71.1z M69.3,71.1
			v-3.6h3.6v3.6H69.3L69.3,71.1z M62.1,71.1v-3.6h3.6v3.6H62.1L62.1,71.1z M47.7,71.1v-3.6h3.6v3.6H47.7L47.7,71.1z M40.5,71.1v-3.6
			h3.6v3.6H40.5L40.5,71.1z M587.7,78.3v-3.6h3.6v3.6H587.7L587.7,78.3z M580.5,78.3v-3.6h3.6v3.6H580.5L580.5,78.3z M573.3,78.3
			v-3.6h3.6v3.6H573.3L573.3,78.3z M566.1,78.3v-3.6h3.6v3.6H566.1L566.1,78.3z M558.9,78.3v-3.6h3.6v3.6H558.9L558.9,78.3z
			 M551.7,78.3v-3.6h3.6v3.6H551.7L551.7,78.3z M544.5,78.3v-3.6h3.6v3.6H544.5L544.5,78.3z M530.1,78.3v-3.6h3.6v3.6H530.1
			L530.1,78.3z M522.9,78.3v-3.6h3.6v3.6H522.9L522.9,78.3z M515.7,78.3v-3.6h3.6v3.6H515.7L515.7,78.3z M508.5,78.3v-3.6h3.6v3.6
			H508.5L508.5,78.3z M501.3,78.3v-3.6h3.6v3.6H501.3L501.3,78.3z M494.1,78.3v-3.6h3.6v3.6H494.1L494.1,78.3z M486.9,78.3v-3.6h3.6
			v3.6H486.9L486.9,78.3z M472.5,78.3v-3.6h3.6v3.6H472.5L472.5,78.3z M465.3,78.3v-3.6h3.6v3.6H465.3L465.3,78.3z M458.1,78.3v-3.6
			h3.6v3.6H458.1L458.1,78.3z M450.9,78.3v-3.6h3.6v3.6H450.9L450.9,78.3z M443.7,78.3v-3.6h3.6v3.6H443.7L443.7,78.3z M436.5,78.3
			v-3.6h3.6v3.6H436.5L436.5,78.3z M414.9,78.3v-3.6h3.6v3.6H414.9L414.9,78.3z M407.7,78.3v-3.6h3.6v3.6H407.7L407.7,78.3z
			 M400.5,78.3v-3.6h3.6v3.6H400.5L400.5,78.3z M393.3,78.3v-3.6h3.6v3.6H393.3L393.3,78.3z M386.1,78.3v-3.6h3.6v3.6H386.1
			L386.1,78.3z M378.9,78.3v-3.6h3.6v3.6H378.9L378.9,78.3z M371.7,78.3v-3.6h3.6v3.6H371.7L371.7,78.3z M357.3,78.3v-3.6h3.6v3.6
			H357.3L357.3,78.3z M350.1,78.3v-3.6h3.6v3.6H350.1L350.1,78.3z M321.3,78.3v-3.6h3.6v3.6H321.3L321.3,78.3z M314.1,78.3v-3.6h3.6
			v3.6H314.1L314.1,78.3z M299.7,78.3v-3.6h3.6v3.6H299.7L299.7,78.3z M292.5,78.3v-3.6h3.6v3.6H292.5L292.5,78.3z M285.3,78.3v-3.6
			h3.6v3.6H285.3L285.3,78.3z M278.1,78.3v-3.6h3.6v3.6H278.1L278.1,78.3z M270.9,78.3v-3.6h3.6v3.6H270.9L270.9,78.3z M263.7,78.3
			v-3.6h3.6v3.6H263.7L263.7,78.3z M242.1,78.3v-3.6h3.6v3.6H242.1L242.1,78.3z M234.9,78.3v-3.6h3.6v3.6H234.9L234.9,78.3z
			 M227.7,78.3v-3.6h3.6v3.6H227.7L227.7,78.3z M220.5,78.3v-3.6h3.6v3.6H220.5L220.5,78.3z M213.3,78.3v-3.6h3.6v3.6H213.3
			L213.3,78.3z M206.1,78.3v-3.6h3.6v3.6H206.1L206.1,78.3z M198.9,78.3v-3.6h3.6v3.6H198.9L198.9,78.3z M184.5,78.3v-3.6h3.6v3.6
			H184.5L184.5,78.3z M177.3,78.3v-3.6h3.6v3.6H177.3L177.3,78.3z M170.1,78.3v-3.6h3.6v3.6H170.1L170.1,78.3z M162.9,78.3v-3.6h3.6
			v3.6H162.9L162.9,78.3z M155.7,78.3v-3.6h3.6v3.6H155.7L155.7,78.3z M148.5,78.3v-3.6h3.6v3.6H148.5L148.5,78.3z M141.3,78.3v-3.6
			h3.6v3.6H141.3L141.3,78.3z M126.9,78.3v-3.6h3.6v3.6H126.9L126.9,78.3z M119.7,78.3v-3.6h3.6v3.6H119.7L119.7,78.3z M98.1,78.3
			v-3.6h3.6v3.6H98.1L98.1,78.3z M90.9,78.3v-3.6h3.6v3.6H90.9L90.9,78.3z M69.3,78.3v-3.6h3.6v3.6H69.3L69.3,78.3z M62.1,78.3v-3.6
			h3.6v3.6H62.1L62.1,78.3z M47.7,78.3v-3.6h3.6v3.6H47.7L47.7,78.3z M40.5,78.3v-3.6h3.6v3.6H40.5L40.5,78.3z M33.3,78.3v-3.6h3.6
			v3.6H33.3L33.3,78.3z M26.1,78.3v-3.6h3.6v3.6H26.1L26.1,78.3z M18.9,78.3v-3.6h3.6v3.6H18.9L18.9,78.3z M11.7,78.3v-3.6h3.6v3.6
			H11.7L11.7,78.3z M4.5,78.3v-3.6h3.6v3.6H4.5L4.5,78.3z M580.5,85.5v-3.6h3.6v3.6H580.5L580.5,85.5z M573.3,85.5v-3.6h3.6v3.6
			H573.3L573.3,85.5z M566.1,85.5v-3.6h3.6v3.6H566.1L566.1,85.5z M558.9,85.5v-3.6h3.6v3.6H558.9L558.9,85.5z M551.7,85.5v-3.6h3.6
			v3.6H551.7L551.7,85.5z M544.5,85.5v-3.6h3.6v3.6H544.5L544.5,85.5z M530.1,85.5v-3.6h3.6v3.6H530.1L530.1,85.5z M522.9,85.5v-3.6
			h3.6v3.6H522.9L522.9,85.5z M515.7,85.5v-3.6h3.6v3.6H515.7L515.7,85.5z M508.5,85.5v-3.6h3.6v3.6H508.5L508.5,85.5z M501.3,85.5
			v-3.6h3.6v3.6H501.3L501.3,85.5z M494.1,85.5v-3.6h3.6v3.6H494.1L494.1,85.5z M465.3,85.5v-3.6h3.6v3.6H465.3L465.3,85.5z
			 M458.1,85.5v-3.6h3.6v3.6H458.1L458.1,85.5z M450.9,85.5v-3.6h3.6v3.6H450.9L450.9,85.5z M443.7,85.5v-3.6h3.6v3.6H443.7
			L443.7,85.5z M407.7,85.5v-3.6h3.6v3.6H407.7L407.7,85.5z M400.5,85.5v-3.6h3.6v3.6H400.5L400.5,85.5z M393.3,85.5v-3.6h3.6v3.6
			H393.3L393.3,85.5z M386.1,85.5v-3.6h3.6v3.6H386.1L386.1,85.5z M378.9,85.5v-3.6h3.6v3.6H378.9L378.9,85.5z M371.7,85.5v-3.6h3.6
			v3.6H371.7L371.7,85.5z M357.3,85.5v-3.6h3.6v3.6H357.3L357.3,85.5z M350.1,85.5v-3.6h3.6v3.6H350.1L350.1,85.5z M321.3,85.5v-3.6
			h3.6v3.6H321.3L321.3,85.5z M314.1,85.5v-3.6h3.6v3.6H314.1L314.1,85.5z M292.5,85.5v-3.6h3.6v3.6H292.5L292.5,85.5z M285.3,85.5
			v-3.6h3.6v3.6H285.3L285.3,85.5z M278.1,85.5v-3.6h3.6v3.6H278.1L278.1,85.5z M270.9,85.5v-3.6h3.6v3.6H270.9L270.9,85.5z
			 M234.9,85.5v-3.6h3.6v3.6H234.9L234.9,85.5z M227.7,85.5v-3.6h3.6v3.6H227.7L227.7,85.5z M220.5,85.5v-3.6h3.6v3.6H220.5
			L220.5,85.5z M213.3,85.5v-3.6h3.6v3.6H213.3L213.3,85.5z M206.1,85.5v-3.6h3.6v3.6H206.1L206.1,85.5z M177.3,85.5v-3.6h3.6v3.6
			H177.3L177.3,85.5z M170.1,85.5v-3.6h3.6v3.6H170.1L170.1,85.5z M162.9,85.5v-3.6h3.6v3.6H162.9L162.9,85.5z M155.7,85.5v-3.6h3.6
			v3.6H155.7L155.7,85.5z M148.5,85.5v-3.6h3.6v3.6H148.5L148.5,85.5z M126.9,85.5v-3.6h3.6v3.6H126.9L126.9,85.5z M119.7,85.5v-3.6
			h3.6v3.6H119.7L119.7,85.5z M98.1,85.5v-3.6h3.6v3.6H98.1L98.1,85.5z M90.9,85.5v-3.6h3.6v3.6H90.9L90.9,85.5z M69.3,85.5v-3.6
			h3.6v3.6H69.3L69.3,85.5z M62.1,85.5v-3.6h3.6v3.6H62.1L62.1,85.5z M40.5,85.5v-3.6h3.6v3.6H40.5L40.5,85.5z M33.3,85.5v-3.6h3.6
			v3.6H33.3L33.3,85.5z M26.1,85.5v-3.6h3.6v3.6H26.1L26.1,85.5z M18.9,85.5v-3.6h3.6v3.6H18.9L18.9,85.5z M11.7,85.5v-3.6h3.6v3.6
			H11.7L11.7,85.5z M4.5,85.5v-3.6h3.6v3.6H4.5L4.5,85.5z M551.7,92.7v-3.6h3.6v3.6H551.7L551.7,92.7z M544.5,92.7v-3.6h3.6v3.6
			H544.5L544.5,92.7z M551.7,99.9v-3.6h3.6v3.6H551.7L551.7,99.9z M544.5,99.9v-3.6h3.6v3.6H544.5L544.5,99.9z M551.7,107.1v-3.6
			h3.6v3.6H551.7L551.7,107.1z M544.5,107.1v-3.6h3.6v3.6H544.5L544.5,107.1z M551.7,114.3v-3.6h3.6v3.6H551.7L551.7,114.3z
			 M544.5,114.3v-3.6h3.6v3.6H544.5L544.5,114.3z"/>
	</g>
</g>
<g id="Layer_2" class="st0">
</g>
</svg>
